<svg width="308" height="403" viewBox="0 0 308 403" fill="none" xmlns="http://www.w3.org/2000/svg">
<g opacity="0.8">
<path d="M201.09 204.661C200.791 204.659 231.882 206.958 258.348 184.992C256.52 190.066 254.694 194.841 252.867 199.616C246.88 200.475 219.928 205.383 196.828 216.002C196.529 216 226.117 219.487 252.562 200.512C250.437 205.285 248.312 210.058 246.187 214.832C240.5 215.393 214.46 218.213 191.967 227.34C191.668 227.338 219.751 232.31 245.882 215.727C243.458 220.499 241.035 224.971 238.613 229.443C233.529 229.409 208.395 230.74 186.212 238.373C185.913 238.371 212.195 244.229 238.009 230.336C235.288 234.806 232.566 239.277 229.845 243.747C225.061 243.416 201.436 242.961 179.559 249.399C179.26 249.397 204.041 256.143 229.241 244.64C226.22 249.108 223.202 253.277 220.183 257.446C215.701 256.818 193.281 254.875 172.312 259.823C172.312 259.823 194.993 267.453 219.581 258.041C216.264 262.208 212.946 266.375 209.63 270.242C205.447 269.616 184.533 266.187 164.468 269.945C164.468 269.945 185.65 278.163 209.327 270.839C206.012 274.707 202.397 278.572 198.483 282.436C194.9 281.515 175.188 277.196 156.029 279.763C156.029 279.763 175.412 288.567 198.182 282.734C194.568 286.599 190.656 290.164 186.744 293.729C183.46 292.809 165.249 287.603 146.995 288.978C146.995 288.978 164.881 298.073 186.144 294.024C182.232 297.589 178.021 301.151 173.812 304.415C171.128 303.2 154.417 297.405 137.066 297.889C137.066 297.889 153.455 307.272 173.511 304.712C169.302 307.975 165.093 311.239 160.587 314.201C158.202 312.989 142.99 306.605 126.842 306.199C126.842 306.199 141.436 315.571 160.286 314.498C155.78 317.461 151.274 320.423 146.768 323.385C144.682 322.175 131.269 315.205 116.021 314.207C116.021 314.207 129.12 323.568 146.469 323.383C141.664 326.344 137.16 329.007 132.06 331.367C130.57 330.459 118.355 323.198 104.31 321.31C104.31 321.31 115.915 330.363 131.761 331.365C126.957 334.026 121.857 336.386 116.759 338.447C115.865 337.843 105.148 330.292 92.0017 328.111C92.0017 328.111 102.113 336.854 116.46 338.445C114.659 339.331 112.56 340.214 110.761 340.801C109.866 340.496 96.1317 336.815 81.7656 338.216C81.7656 338.216 95.4881 343.692 110.462 340.799C108.064 341.681 105.663 342.862 103.264 343.744C103.565 343.446 103.865 343.448 104.166 343.151C104.166 343.151 88.0011 345.139 73.9006 351.628C73.9006 351.628 89.7561 351.135 102.965 343.742C105.364 342.86 108.062 341.98 110.462 340.799C108.66 341.984 96.34 350.58 88.4927 361.299C88.4927 361.299 103.801 353.022 110.761 340.801C112.562 339.915 114.659 339.331 116.46 338.445C108.008 350.058 104.331 363.498 104.331 363.498C114.87 352.796 116.452 339.642 116.46 338.445C121.558 336.384 126.658 334.024 131.461 331.363C122.998 344.771 119.909 359.711 119.909 359.711C130.757 347.515 131.749 333.16 131.761 331.365C136.562 329.003 141.365 326.342 146.17 323.381C137.994 338.587 135.194 355.025 135.194 355.025C146.353 341.036 146.156 325.476 146.17 323.381C150.973 320.72 155.479 317.758 159.987 314.496C152.098 331.499 150.186 349.439 150.186 349.439C161.354 333.954 160.27 316.892 160.286 314.498C164.792 311.536 169.001 308.273 173.21 305.009C165.908 323.811 164.882 343.252 164.882 343.252C176.065 325.673 173.791 307.706 173.511 304.712C177.72 301.448 181.931 297.886 185.843 294.321C179.426 314.924 179.288 335.867 179.288 335.867C190.183 316.491 186.72 297.319 186.144 294.024C190.056 290.459 193.967 286.895 197.881 283.031C192.35 305.435 193.4 327.582 193.4 327.582C204.008 306.409 199.058 286.031 198.184 282.434C201.799 278.569 205.414 274.703 209.028 270.837C204.683 294.745 206.92 318.396 207.217 318.697C217.241 295.426 210.801 274.14 209.628 270.542C213.243 266.676 216.561 262.509 219.579 258.34C216.718 284.053 220.442 308.911 220.44 309.21C229.88 283.84 221.649 261.944 219.882 257.744C223.2 253.577 226.218 249.408 229.239 244.939C227.863 272.158 233.073 298.522 233.073 298.522C241.629 271.052 231.61 248.246 229.542 244.343C232.562 239.875 235.284 235.405 238.005 230.935C238.412 259.96 245.111 287.232 245.41 287.234C252.784 257.661 240.972 234.545 238.609 230.041C241.331 225.571 243.755 220.8 246.177 216.328C248.369 246.861 257.156 275.044 257.156 275.044C263.345 243.668 249.445 219.64 246.482 215.432C248.906 210.661 251.032 205.888 253.157 201.114C257.434 232.858 268.008 262.25 268.307 262.252C273.313 228.774 257.023 204.431 253.761 200.221C255.886 195.447 257.714 190.373 259.54 185.598C266.202 218.554 278.864 248.857 278.864 248.857C282.089 213.273 263.706 188.917 259.847 184.403C261.982 178.134 264.117 171.865 265.955 165.294C265.359 164.991 264.462 164.985 263.865 164.682C262.327 171.254 260.192 177.524 258.057 183.793C252.663 185.253 224.502 192.248 201.09 204.661Z" fill="url(#paint0_linear_42_153)"/>
<path d="M241.428 256.09C241.129 256.088 261.839 245.154 269.779 220.373C270.651 224.268 271.523 228.164 272.095 232.057C268.785 235.027 253.439 248.989 243.162 265.377C242.863 265.375 263.264 255.935 272.388 232.957C272.961 236.85 273.533 240.744 274.106 244.637C270.798 247.308 255.464 259.474 244.596 274.662C244.297 274.66 264.09 266.712 274.1 245.535C274.373 249.426 274.647 253.317 274.92 257.209C271.617 259.281 256.29 270.251 245.133 283.941C244.834 283.939 264.021 277.184 274.916 257.807C275.19 261.699 275.164 265.588 275.137 269.777C271.835 271.55 256.52 280.725 245.369 293.517C245.369 293.517 263.651 287.952 275.133 270.375C275.107 274.265 274.782 278.152 274.456 282.339C271.455 283.815 256.449 291.495 245.007 303.089C245.007 303.089 262.683 298.717 274.454 282.638C274.129 286.526 273.804 290.413 273.178 294.598C270.18 295.775 255.481 302.26 244.346 312.659C244.346 312.659 261.116 309.478 273.176 294.897C272.552 298.783 271.929 302.668 271.006 306.552C268.308 307.431 254.215 312.724 242.789 321.924C242.789 321.924 258.656 319.635 270.705 306.849C269.782 310.732 268.859 314.616 267.936 318.499C265.539 319.082 251.754 323.18 240.632 331.484C240.632 331.484 255.597 330.087 267.635 318.797C266.413 322.678 265.49 326.562 263.969 330.441C261.871 331.026 248.692 333.931 237.877 341.041C237.877 341.041 251.938 340.535 263.668 330.739C262.446 334.62 260.927 338.201 259.406 342.08C257.31 342.366 245.034 344.379 234.823 350.595C234.823 350.595 247.983 350.682 259.404 342.379C257.883 346.259 256.064 349.838 254.246 353.416C252.452 353.404 241.079 354.526 230.872 360.144C230.872 360.144 243.131 360.823 253.945 353.713C252.127 357.292 250.307 361.169 248.19 364.746C246.694 364.736 236.224 364.966 226.622 369.69C226.622 369.69 237.68 370.96 248.188 365.045C246.07 368.621 243.953 372.198 241.537 375.772C240.639 375.767 230.772 375.402 221.474 379.231C221.474 379.231 231.633 380.794 241.236 376.07C240.33 377.261 239.423 378.751 238.518 379.941C237.918 380.237 227.428 383.459 219.01 389.986C219.01 389.986 229.791 387.962 238.518 379.941C237.312 381.429 236.403 383.219 235.197 384.707C235.199 384.408 235.498 384.41 235.5 384.11C235.5 384.11 225.878 391.826 219.831 401.66C219.831 401.66 229.746 394.844 235.195 385.006C236.401 383.518 237.609 381.731 238.815 380.243C238.207 381.735 233.652 392.177 232.989 402.046C232.989 402.046 239.344 390.718 238.817 379.943C239.722 378.753 240.63 377.262 241.535 376.072C240.865 386.839 243.791 396.732 243.791 396.732C246.257 385.677 241.83 376.672 241.537 375.772C243.953 372.198 246.068 368.921 248.186 365.344C248.107 377.312 252.223 388.11 252.223 388.11C254.098 375.855 248.776 366.545 248.186 365.344C250.303 361.768 252.121 358.189 254.238 354.613C255.051 367.484 260.058 379.186 260.058 379.186C261.641 366.031 255.128 355.815 254.238 354.613C256.057 351.034 257.877 347.157 259.396 343.576C261.399 357.353 267.3 369.659 267.3 369.659C267.992 355.302 260.584 344.781 259.398 343.277C260.919 339.397 262.438 335.817 263.959 331.937C266.853 346.617 274.246 359.532 274.246 359.532C274.348 343.974 265.447 333.144 264.26 331.64C265.482 327.759 267.003 323.879 267.926 319.995C272.011 335.581 280.596 349.102 280.596 349.102C279.809 332.341 269.711 321.503 267.928 319.696C269.15 315.815 270.073 311.931 270.996 308.048C276.57 324.54 286.349 338.368 286.349 338.368C284.374 320.403 273.08 309.557 270.998 307.748C271.921 303.865 272.545 299.979 273.168 296.094C280.234 313.195 291.208 327.33 291.208 327.33C288.042 308.459 275.551 297.605 273.17 295.795C273.794 291.909 274.418 288.023 274.745 283.837C283.302 301.546 295.771 315.691 295.771 315.691C291.415 295.915 277.429 285.051 274.749 283.238C275.073 279.351 275.398 275.463 275.426 271.275C285.476 289.293 299.439 303.747 299.738 303.749C294.193 282.768 278.409 272.491 275.43 270.676C275.455 266.787 275.481 262.897 275.509 258.709C287.352 277.038 302.81 291.502 303.109 291.504C296.075 269.616 278.793 259.628 275.515 257.811C275.241 253.92 275.267 250.03 274.696 245.838C288.334 264.179 305.584 278.954 305.584 278.954C296.76 256.455 278.279 246.759 274.7 245.239C274.427 241.348 273.854 237.454 273.282 233.561C288.712 252.213 307.462 266.4 307.761 266.401C297.147 242.994 277.166 234.185 273.288 232.663C272.715 228.77 271.843 224.875 270.972 220.979C288.498 239.346 308.743 253.542 309.042 253.544C296.638 229.526 275.155 221.605 270.978 220.082C269.813 215.287 268.65 210.193 266.887 205.394C266.287 205.689 265.689 205.685 265.388 205.982C266.852 210.779 268.316 215.576 269.48 220.371C266.175 222.743 251.116 238.501 241.428 256.09Z" fill="url(#paint1_linear_42_153)"/>
<path d="M217.62 147.323C217.317 147.919 187.38 151.91 183.72 162.658C179.458 173.999 189.621 174.964 189.621 174.964C189.318 175.56 157.567 182.532 153.028 190.58C148.185 199.225 157.431 203.176 157.431 203.176C157.429 203.475 132.284 206.601 125.057 214.033C117.827 221.765 128.886 223.034 128.886 223.034C128.884 223.334 105.529 227.069 99.5141 232.116C93.4968 237.462 102.731 243.208 103.03 243.21C103.028 243.509 77.8851 246.335 73.6703 250.496C69.4515 255.256 75.1164 257.986 75.1164 257.986C75.1144 258.285 45.7743 262.58 46.5986 273.656C47.716 285.631 79.1754 277.461 78.8783 277.16C78.8783 277.16 74.3565 282.515 80.3244 284.649C86.5895 287.084 112.699 273.792 112.402 273.491C112.402 273.491 106.947 284.226 115.918 284.585C125.187 284.945 148.926 268.346 148.629 268.045C148.629 268.045 139.886 278.459 152.458 277.046C165.627 275.637 187.016 252.44 186.42 252.137C186.42 252.137 184.254 263.193 196.229 261.477C209.102 259.767 232.36 225.213 231.762 225.209C231.762 225.209 228.995 236.56 243.979 232.171C259.864 227.189 269.072 191.645 268.472 191.94C268.473 191.641 272.216 213.806 290.319 189.99C308.731 164.679 274.265 129.744 274.261 130.342C273.96 130.639 228.002 115.077 213.254 129.042C197.903 143.602 217.32 147.321 217.62 147.323Z" fill="url(#paint2_linear_42_153)"/>
<path opacity="0.07" d="M213.852 129.046C197.904 143.602 217.321 147.321 217.62 147.323C217.317 147.919 187.38 151.91 183.72 162.658C179.458 173.999 189.621 174.964 189.621 174.964C189.318 175.56 157.567 182.532 153.028 190.58C148.185 199.225 157.431 203.176 157.431 203.176C157.429 203.475 132.284 206.601 125.057 214.033C122.345 217.007 122.033 219.099 123.221 220.304C157.089 209.756 207.084 202.905 226.018 234.446C229.639 229.683 231.756 226.106 232.061 225.211L232.063 224.911C232.063 224.911 232.063 224.911 232.061 225.211C231.754 226.405 230.194 236.269 244.28 231.874C259.565 227.187 268.759 193.737 268.773 191.643C269.062 193.141 273.123 212.316 290.622 189.393C309.034 164.082 274.569 129.147 274.565 129.746C274.561 130.344 228.602 114.782 213.852 129.046Z" fill="#1F5148"/>
<path opacity="0.8" d="M201.349 165.467C215.699 166.459 230.655 166.258 245.918 164.863C228.441 184.495 208.585 202.017 187.251 216.837C172.59 217.638 158.238 216.945 144.189 215.655C157.035 217.834 170.189 218.819 183.945 219.209C162.011 234.323 138.301 246.733 113.114 256.142C112.516 256.138 111.32 256.13 109.826 255.821C107.436 255.506 104.146 255.484 100.858 255.163C97.5696 254.843 94.5788 254.823 91.889 254.506C89.4963 254.49 88.0028 254.181 88.0028 254.181C88.0028 254.181 89.4963 254.49 91.887 254.805C94.2777 255.12 97.2666 255.439 100.555 255.76C103.843 256.081 107.133 256.102 109.525 256.118C111.021 256.128 112.217 256.136 112.815 256.14C96.0229 262.612 78.9414 267.585 61.2716 271.059C90.9207 265.271 119.698 255.587 146.707 242.002C146.105 242.596 145.199 243.787 143.991 245.574C142.179 248.255 139.466 251.528 137.049 255.103C134.633 258.677 132.216 262.252 130.404 264.933C128.592 267.614 127.384 269.401 127.384 269.401C127.384 269.401 128.891 267.616 131.299 265.238C133.411 262.559 136.124 259.286 138.84 255.713C141.256 252.139 143.672 248.564 145.186 245.881C146.095 244.092 147.002 242.602 147.305 242.006C160.809 235.213 173.719 227.818 186.338 219.224C197.454 211.817 207.977 203.509 218.203 194.9C215.415 209.542 211.426 224.775 206.243 239.701C212.628 223.886 217.518 208.06 220.911 192.524C237.156 178.269 252.217 162.212 265.491 144.945C269.304 156.34 272.517 168.03 275.13 180.016C273.421 167.139 270.812 154.555 267.302 142.564C272.13 136.013 276.66 129.46 281.192 122.609C280.296 122.304 279.702 121.701 278.807 121.396C269.439 135.995 259.179 149.691 248.026 162.782C232.16 164.772 216.6 165.866 201.349 165.467Z" fill="#1F5148"/>
<path opacity="0.82" d="M181.724 57.0257C181.423 57.323 210.215 45.5447 242.132 58.6209C238.87 54.4105 235.607 50.2001 232.343 46.289C226.355 47.1471 199.113 50.8571 174.011 47.4004C173.71 47.6976 200.713 35.0099 231.751 45.3874C228.487 41.4763 224.923 37.5632 221.36 33.65C215.968 34.8113 190.211 40.0271 165.698 38.0703C165.397 38.3675 190.609 25.0696 220.766 33.0477C217.2 29.4337 213.338 25.5186 209.471 22.2019C204.377 23.6643 180.407 30.0888 156.781 29.6338C156.779 29.933 179.901 16.0229 208.578 21.5976C204.713 17.9817 200.847 14.665 196.682 11.3463C192.183 13.1118 169.701 20.7428 147.265 21.1933C147.263 21.4925 168.593 7.27138 196.087 10.7439C191.922 7.4252 187.754 4.40571 183.587 1.3862C179.388 3.15374 158.694 11.6942 137.446 13.3493C137.446 13.3493 156.982 -0.883644 182.993 0.783882C178.825 -2.23563 174.358 -5.25714 169.89 -7.97944C166.287 -5.90877 147.084 3.23991 127.028 5.80049C127.028 5.80049 144.769 -8.44426 169.593 -8.28057C165.124 -11.0029 160.656 -13.7252 155.886 -16.1503C152.582 -14.0776 135.17 -4.31873 116.304 -0.852682C116.304 -0.852682 132.25 -15.1093 155.589 -16.4514C150.819 -18.8765 146.05 -21.3016 141.278 -23.4274C138.573 -21.3509 122.652 -10.9837 104.978 -6.91142C104.978 -6.91142 119.429 -21.1779 140.981 -23.7286C136.209 -25.8545 131.139 -27.9824 126.066 -29.811C123.662 -28.0317 109.534 -17.3535 93.0502 -12.3757C93.0502 -12.3757 105.705 -26.3548 125.767 -29.813C120.694 -31.6417 115.622 -33.4703 110.547 -34.9998C108.741 -33.2165 96.1081 -22.5285 80.8192 -17.2436C80.8192 -17.2436 91.9742 -30.6342 110.248 -35.0018C105.173 -36.5313 99.7998 -38.0627 94.7232 -39.293C93.2179 -37.8069 82.3777 -26.8079 68.2832 -21.2159C68.2832 -21.2159 77.9388 -34.018 94.7232 -39.293C89.3475 -40.5253 83.9718 -41.7575 78.5941 -42.6906C77.3879 -41.2025 68.0472 -30.792 55.147 -24.893C55.147 -24.893 63.6023 -37.1046 78.2951 -42.6926C72.9174 -43.6256 67.5398 -44.5587 61.8611 -45.1946C61.257 -44.3009 53.1126 -33.8825 41.4067 -27.6764C41.4067 -27.6764 48.3627 -39.2995 61.562 -45.1965C59.4703 -45.5095 57.3767 -45.5233 55.2851 -45.8363C54.3839 -45.2438 42.3691 -37.5438 28.2923 -34.6445C28.2923 -34.6445 39.7187 -43.8445 54.986 -45.8383C52.2962 -46.1552 49.9035 -46.171 47.2137 -46.4879C47.5128 -46.486 47.8119 -46.484 48.109 -46.1828C48.109 -46.1828 32.2356 -42.9962 16.6969 -45.1931C16.6969 -45.1931 31.98 -49.5804 46.9146 -46.4899C49.6064 -46.4722 52.2962 -46.1552 54.986 -45.8383C52.8963 -46.4505 38.5678 -50.7338 27.8519 -58.5837C27.8519 -58.5837 44.8782 -55.1802 55.2851 -45.8363C57.3787 -45.8225 59.4703 -45.5095 61.562 -45.1965C49.9528 -53.6508 42.5526 -65.3685 42.5526 -65.3685C55.667 -58.4003 61.2708 -46.3953 61.8611 -45.1946C67.2407 -44.5607 72.9194 -43.9248 78.297 -42.9918C66.1015 -53.2451 58.7112 -66.4588 58.7112 -66.4588C72.715 -58.2879 78.0078 -44.4897 78.5961 -42.9898C83.9738 -42.0567 89.3514 -41.1237 94.7271 -39.8914C82.2444 -51.9418 74.8638 -66.6514 74.8638 -66.6514C89.454 -56.6815 94.4399 -41.6885 95.0262 -39.8894C100.402 -38.6572 105.476 -37.1277 110.85 -35.5962C98.3793 -49.4418 91.0106 -65.9466 91.0106 -65.9466C106.488 -54.4748 110.567 -37.9917 111.149 -35.5942C116.224 -34.0648 121.297 -32.2361 126.369 -30.4074C113.91 -46.0482 106.852 -64.3461 106.852 -64.3461C122.617 -51.0772 126.088 -33.1021 126.668 -30.4055C131.741 -28.5768 136.512 -26.4509 141.583 -24.323C129.437 -42.0561 122.987 -61.8461 122.987 -61.8461C139.338 -46.7781 141.603 -27.315 142.179 -24.0199C146.951 -21.8941 151.721 -19.469 156.49 -17.0439C144.655 -36.5702 138.815 -58.1513 138.817 -58.4505C155.155 -41.2882 156.811 -20.333 156.789 -17.0419C161.559 -14.6168 166.027 -11.8945 170.795 -9.17026C159.572 -30.7869 154.641 -54.1573 154.641 -54.1573C171.264 -34.8987 171.417 -12.7566 171.391 -8.86715C175.86 -6.14486 180.326 -3.12337 184.795 -0.401075C174.184 -24.1081 170.16 -48.9685 170.459 -48.9665C187.068 -27.6136 185.716 -3.98545 185.389 0.201245C189.856 3.22273 194.023 6.24226 198.189 9.56096C188.487 -15.9353 185.671 -42.583 185.972 -42.8802C202.268 -19.4349 199.712 5.38217 199.084 9.86609C203.25 13.1848 207.116 16.5015 211.28 20.1194C202.788 -7.46331 201.178 -35.599 201.48 -35.8962C217.461 -10.0594 213.102 15.9426 212.173 20.7237C216.037 24.3396 219.902 27.9555 223.467 31.5695C216.484 1.90232 216.082 -27.7215 216.383 -28.0187C231.75 0.207722 225.59 27.0954 224.36 32.1738C227.926 35.7877 231.489 39.7009 235.051 43.9132C229.575 12.4607 230.979 -18.9464 230.979 -18.9464C245.732 11.6696 237.473 39.4411 235.643 44.8147C239.206 48.7279 242.469 52.9382 245.432 57.1466C241.765 23.6117 244.672 -8.98237 244.971 -8.9804C258.811 24.0232 248.452 52.6785 246.323 58.0501C250.475 63.4631 254.029 68.8722 257.879 74.5825C257.279 74.8777 256.677 75.4722 256.077 75.7674C252.525 70.0591 248.673 64.6481 244.82 59.237C236.44 60.0793 207.713 61.9844 181.724 57.0257Z" fill="url(#paint3_linear_42_153)"/>
<path d="M230.88 -3.98687C230.585 -4.58722 200.704 -8.97308 197.186 -19.7676C193.074 -31.1644 203.249 -31.9949 203.249 -31.9949C202.954 -32.5953 171.298 -39.9849 166.865 -48.0926C162.137 -56.8007 171.434 -60.629 171.434 -60.629C171.436 -60.9282 146.336 -64.6842 139.205 -71.9121C132.079 -79.7384 143.153 -80.8621 143.153 -80.8621C143.155 -81.1613 119.852 -85.2046 113.903 -90.3303C107.957 -95.7551 117.266 -101.379 117.565 -101.377C117.567 -101.676 92.4638 -104.833 88.3042 -109.05C84.1486 -113.864 89.849 -116.52 89.849 -116.52C89.8509 -116.819 60.57 -121.5 61.5403 -132.564C62.8155 -144.524 94.1644 -135.939 93.8634 -135.642C93.8634 -135.642 89.4126 -141.057 95.4081 -143.112C101.705 -145.464 127.637 -131.829 127.335 -131.532C127.335 -131.532 122.023 -142.338 130.998 -142.578C140.271 -142.816 163.789 -125.906 163.488 -125.609C163.488 -125.609 154.883 -136.137 167.435 -134.559C180.585 -132.976 201.666 -109.499 201.066 -109.204C201.066 -109.204 199.045 -120.288 210.997 -118.414C223.846 -116.534 246.647 -81.6758 246.049 -81.6797C246.049 -81.6797 243.432 -93.0666 258.357 -88.4802C274.175 -83.2894 282.913 -47.6266 282.316 -47.9298C282.314 -47.6306 286.348 -69.745 304.136 -45.6915C322.213 -20.14 287.29 14.3373 287.294 13.7389C286.996 13.4377 240.836 28.3927 226.274 14.2342C211.117 -0.526722 230.583 -4.28803 230.88 -3.98687Z" fill="url(#paint4_linear_42_153)"/>
<path opacity="0.05" d="M226.872 14.2381C211.117 -0.526709 230.581 -3.98883 230.881 -3.98685C230.585 -4.58721 200.704 -8.97307 197.186 -19.7676C193.074 -31.1644 203.249 -31.9949 203.249 -31.9949C202.954 -32.5953 171.298 -39.9849 166.865 -48.0926C162.137 -56.8007 171.434 -60.629 171.434 -60.629C171.436 -60.9282 146.336 -64.6842 139.206 -71.9121C136.534 -74.9217 136.248 -77.018 137.453 -78.2069C171.178 -67.2132 221.079 -59.7033 240.427 -90.9921C243.985 -86.1813 246.055 -82.5773 246.348 -81.6777L246.346 -81.3785C246.346 -81.3785 246.346 -81.3785 246.348 -81.6777C246.057 -82.8765 244.626 -92.7596 258.654 -88.1791C273.876 -83.2914 282.627 -49.723 282.614 -47.6286C282.923 -49.1226 287.236 -68.2432 304.431 -45.0911C322.508 -19.5397 287.585 14.9376 287.589 14.3393C287.595 13.4417 241.734 28.3987 226.872 14.2381Z" fill="#1F5148"/>
<path opacity="0.8" d="M215.151 -22.6412C229.513 -23.4441 244.466 -23.0463 259.709 -21.4497C242.493 -41.3107 222.869 -59.0931 201.733 -74.1926C187.083 -75.1868 172.723 -74.6831 158.658 -73.579C171.533 -75.5885 184.698 -76.3993 198.458 -76.6078C176.726 -92.0105 153.181 -104.732 128.12 -114.472C127.522 -114.476 126.326 -114.484 124.829 -114.194C122.434 -113.911 119.144 -113.933 115.852 -113.655C112.56 -113.378 109.569 -113.398 106.875 -113.116C104.483 -113.132 102.985 -112.842 102.985 -112.842C102.985 -112.842 104.483 -113.132 106.877 -113.415C109.272 -113.699 112.265 -113.978 115.557 -114.256C118.849 -114.533 122.139 -114.511 124.531 -114.496C126.027 -114.486 127.223 -114.478 127.821 -114.474C111.116 -121.167 94.1015 -126.365 76.479 -130.072C106.049 -123.893 134.696 -113.83 161.524 -99.89C160.929 -100.492 160.04 -101.695 158.855 -103.498C157.079 -106.203 154.409 -109.511 152.04 -113.117C149.671 -116.724 147.302 -120.33 145.525 -123.034C143.748 -125.739 142.563 -127.542 142.563 -127.542C142.563 -127.542 144.049 -126.036 146.424 -123.327C148.5 -120.621 151.17 -117.312 153.838 -113.704C156.207 -110.098 158.576 -106.492 160.054 -103.789C160.939 -101.988 161.827 -100.486 162.122 -99.8861C175.535 -92.9159 188.347 -85.3514 200.851 -76.592C211.868 -69.0393 222.281 -60.593 232.393 -51.8494C229.798 -66.5275 226.01 -81.8118 221.024 -96.8049C227.2 -80.9064 231.881 -65.0177 235.069 -49.4381C251.125 -34.9705 265.972 -18.7156 279.018 -1.27581C282.981 -12.6194 286.348 -24.2661 289.119 -36.216C287.239 -23.3626 284.465 -10.8144 280.797 1.12955C285.539 7.74329 289.982 14.355 294.422 21.266C293.523 21.5593 292.921 22.1537 292.022 22.447C282.847 7.72556 272.769 -6.10427 261.789 -19.3416C245.951 -21.5405 230.106 -22.5426 215.151 -22.6412Z" fill="#1F5148"/>
<path d="M290.702 222.605C290.702 222.605 318.608 299.685 198.321 352.449C198.323 352.15 199.167 224.096 290.702 222.605Z" fill="url(#paint5_linear_42_153)"/>
<path opacity="0.1" d="M233.107 247.957C256.349 261.275 255.54 293.285 249.967 321.972C309.504 274.192 290.702 222.605 290.702 222.605C264.976 223.034 246.364 233.384 233.107 247.957Z" fill="#1A7F72"/>
<path opacity="0.4" d="M220.978 273.01L256.908 267.263L229.726 307.177L209.366 310.334L228.518 308.964L220.362 321.178L219.763 321.174L219.759 321.772L206.774 340.536L219.752 322.969L220.251 337.933L221.558 321.186L221.259 321.184L244.799 289.324L245.501 318.95L246.609 286.943L275.582 247.639C275.578 248.237 275.576 248.536 275.572 249.135C275.544 253.323 275.509 258.709 275.473 264.094C275.402 274.865 275.329 285.935 275.329 285.935C275.329 285.935 275.998 275.168 276.371 264.1C276.705 258.717 277.04 253.333 277.067 249.145C277.077 247.649 277.386 246.155 277.394 244.958L292.788 223.816L288.62 220.796L258.419 264.879L220.978 273.01Z" fill="#1F5148"/>
<path d="M230.974 72.6098C230.974 72.6098 217.939 8.19517 113.76 22.1692C113.76 22.1692 167.32 109.591 230.974 72.6098Z" fill="url(#paint6_linear_42_153)"/>
<path opacity="0.1" d="M180.683 78.8607C190.977 60.0788 177.361 38.4464 161.322 21.286C221.988 29.1661 230.674 72.6079 230.674 72.6079C212.959 82.9632 195.907 83.4492 180.683 78.8607Z" fill="#1A7F72"/>
<path opacity="0.6" d="M162.217 67.07L189.208 56.1774L154.018 40.3868L138.723 46.5693L152.23 39.4774L141.494 34.6194L141.193 34.9166L140.898 34.3162L124.198 26.726L140.306 33.4148L134.393 22.9036L142.397 33.7277L142.096 34.025L171.328 46.1858L159.498 25.762L173.715 47.0992L209.807 61.9981C209.51 61.697 209.512 61.3978 209.215 61.0966C207.438 58.3921 205.071 54.4868 203.001 50.8827C198.564 43.3734 193.826 36.1612 193.826 36.1612C193.826 36.1612 198.564 43.3734 203.602 50.5875C205.971 54.1935 208.639 57.8016 210.415 60.5061C211.307 61.4096 211.899 62.3111 212.192 63.2107L231.582 71.1178L230.061 74.9974L190.995 57.386L162.217 67.07Z" fill="#1F5148"/>
<path d="M137.157 193.468C137.157 193.468 110.694 260.315 1.15603 225.184C1.15603 225.184 75.8859 141.302 137.157 193.468Z" fill="url(#paint7_linear_42_153)"/>
<path opacity="0.2" d="M27.3304 202.019C55.4978 194.126 81.5026 196.691 104.642 225.567C129.25 213.163 137.156 193.468 137.156 193.468C98.4902 160.6 54.6814 181.853 27.3304 202.019Z" fill="#1A7F72"/>
<path opacity="0.6" d="M61.8301 186.389L88.9365 203.323L47.8906 213.823L32.4011 204.147L45.793 214.408L33.2096 217.616L32.9125 217.315L32.6115 217.612L13.1372 222.57L32.0074 218.506L23.8649 228.625L34.4001 218.522L34.1029 218.221L67.9491 210.964L51.3671 230.901L70.6429 210.682L112.576 201.683C112.275 201.981 111.974 202.278 111.673 202.575C109.263 205.252 105.949 208.821 102.934 212.391C96.6063 219.53 90.2781 226.67 90.2781 226.67C90.2781 226.67 96.9034 219.831 103.529 212.994C106.84 209.724 110.154 206.156 112.862 203.78C113.765 202.888 114.668 201.996 115.27 201.402L137.735 196.464L136.568 191.968L91.0301 203.337L61.8301 186.389Z" fill="#1F5148"/>
</g>
<defs>
<linearGradient id="paint0_linear_42_153" x1="-58.6944" y1="-180.777" x2="439.672" y2="815.121" gradientUnits="userSpaceOnUse">
<stop stop-color="#41CBB9"/>
<stop offset="1" stop-color="#307E70"/>
</linearGradient>
<linearGradient id="paint1_linear_42_153" x1="57.4425" y1="177.996" x2="711.711" y2="592.572" gradientUnits="userSpaceOnUse">
<stop stop-color="#41CBB9"/>
<stop offset="1" stop-color="#307E70"/>
</linearGradient>
<linearGradient id="paint2_linear_42_153" x1="-298.684" y1="-19.6976" x2="592.728" y2="580.152" gradientUnits="userSpaceOnUse">
<stop stop-color="#41CBB9"/>
<stop offset="1" stop-color="#3EB39D"/>
</linearGradient>
<linearGradient id="paint3_linear_42_153" x1="86.7199" y1="287.691" x2="199.905" y2="-422.744" gradientUnits="userSpaceOnUse">
<stop stop-color="#41CBB9"/>
<stop offset="1" stop-color="#307E70"/>
</linearGradient>
<linearGradient id="paint4_linear_42_153" x1="-469.581" y1="241.489" x2="429.671" y2="-346.559" gradientUnits="userSpaceOnUse">
<stop stop-color="#41CBB9"/>
<stop offset="1" stop-color="#359D8A"/>
</linearGradient>
<linearGradient id="paint5_linear_42_153" x1="-492.886" y1="175.937" x2="733.33" y2="361.1" gradientUnits="userSpaceOnUse">
<stop stop-color="#41CBB9"/>
<stop offset="1" stop-color="#32BFA6"/>
</linearGradient>
<linearGradient id="paint6_linear_42_153" x1="-371.727" y1="501.099" x2="580.99" y2="-293.179" gradientUnits="userSpaceOnUse">
<stop stop-color="#41CBB9"/>
<stop offset="1" stop-color="#4DD0B9"/>
</linearGradient>
<linearGradient id="paint7_linear_42_153" x1="-287.952" y1="-215.766" x2="510.097" y2="733.856" gradientUnits="userSpaceOnUse">
<stop stop-color="#41CBB9"/>
<stop offset="1" stop-color="#2EA892"/>
</linearGradient>
</defs>
</svg>
