<svg width="230" height="230" viewBox="0 0 230 230" fill="none" xmlns="http://www.w3.org/2000/svg">
<g opacity="0.07" clip-path="url(#clip0_9_23)">
<path d="M109.857 64.0714C110.268 64.4821 110.68 64.8929 110.68 65.3036C111.091 65.7143 111.503 66.125 111.914 66.5357C112.326 66.9464 112.737 66.9464 113.56 67.3571C114.794 67.7679 116.44 67.7678 117.674 66.9464C119.32 66.125 120.143 64.4821 120.143 62.8393C120.143 62.4286 120.143 62.0179 120.143 61.6071C120.143 61.1964 120.143 60.7857 120.143 60.375C120.143 59.9643 120.143 59.5536 119.732 58.7321C119.732 58.3214 119.32 57.9107 119.32 57.5C119.32 57.0893 119.32 57.0893 118.909 56.6786C118.497 56.2679 118.497 55.8571 118.086 55.4464C117.674 54.625 116.852 54.2143 116.029 54.2143C114.794 53.8036 113.971 54.2143 112.737 54.625C111.914 55.0357 111.503 55.4464 111.091 56.2679C111.091 56.2679 110.68 56.2679 110.68 56.6786C110.268 57.0893 109.857 57.5 109.857 57.9107C109.445 58.3214 109.445 59.1429 109.034 59.5536C109.034 59.9643 109.034 60.375 109.034 60.7857C109.034 61.1964 109.034 61.6071 109.034 62.0179C109.445 62.8393 109.857 63.25 109.857 64.0714ZM119.732 59.9643C119.732 59.5536 119.732 59.5536 119.32 59.1429C119.732 59.5536 119.732 59.5536 119.732 59.9643Z" fill="white"/>
<path d="M119.32 57.5C119.731 57.5 119.731 57.5 119.32 57.5C119.32 57.9107 119.731 57.9107 119.731 58.3214C119.731 57.9107 119.731 57.9107 119.32 57.5Z" fill="white"/>
<path d="M88.4617 82.5535C92.1647 82.5535 95.4563 82.9642 99.1593 82.9642C105.743 83.375 111.914 83.7857 118.497 82.9642C120.555 82.5535 123.023 82.5535 125.081 82.1428C125.081 82.5535 125.081 83.375 125.081 83.7857C125.081 85.4285 124.669 87.0714 124.669 89.125C124.669 90.3571 124.669 92 124.669 93.2321C120.966 92.8214 117.675 93.2321 114.383 94.0535C109.857 95.2857 104.508 96.9285 100.805 100.214C93.8105 105.554 93.8105 114.589 93.8105 122.393C93.8105 122.804 93.8105 123.214 93.8105 123.214C90.5189 126.089 87.6388 129.375 85.993 133.071C82.2899 140.875 82.2899 150.321 86.4044 157.714C88.4617 161.411 91.7533 165.107 95.8677 166.75C99.9822 168.804 106.565 170.857 110.268 167.161C111.091 166.339 111.091 165.107 110.268 164.696C107.8 162.232 104.097 162.232 101.217 161C98.7479 159.768 96.2792 158.125 94.6334 155.661C90.9304 150.732 90.1075 144.571 91.7533 138.821C95.0448 126.5 109.857 119.929 121.789 123.214C123.435 123.625 125.081 124.446 126.315 125.268C127.961 126.5 130.018 127.321 131.664 128.964C134.544 131.839 137.424 138.411 134.544 142.518C132.075 146.214 139.893 147.446 138.658 142.929C137.836 140.875 138.247 138.411 137.836 136.357C137.424 133.893 136.601 131.839 135.778 129.786C133.721 125.679 131.664 121.982 127.549 119.518C120.143 115 111.091 115 103.685 117.875C102.039 118.286 100.805 119.107 99.1593 119.929C99.1593 114.589 99.5708 108.018 104.097 104.732C107.388 102.268 111.503 101.857 115.206 101.857C119.732 101.857 123.846 102.268 128.372 103.089C131.664 103.5 134.544 101.036 133.721 97.75C132.898 94.0535 132.487 90.7678 132.075 87.0714C132.075 85.4285 131.664 83.375 131.252 81.7321C133.31 81.3214 134.955 80.9107 137.013 80.9107C142.773 80.0892 147.71 80.0892 153.471 80.9107C155.116 81.3214 156.351 78.8571 154.705 78.0357C150.59 75.5714 144.419 76.3928 139.893 76.3928C133.31 76.3928 126.315 75.9821 119.732 76.3928C112.326 76.3928 105.331 76.8035 98.3364 75.9821C92.5762 75.5714 83.1128 73.9285 78.1754 78.4464C76.5296 80.0892 77.764 82.1428 79.4098 82.9642C81.467 83.375 85.1701 82.5535 88.4617 82.5535Z" fill="white"/>
<path d="M228.764 135.946C222.181 133.071 220.947 124.857 216.421 119.929C214.363 117.464 211.483 115.821 208.603 114.589C211.072 113.357 213.54 111.714 215.186 109.661C219.301 105.143 220.947 98.5714 225.884 94.875C228.353 92.8214 226.295 89.5357 223.415 89.125C222.592 89.125 220.535 88.7143 219.712 88.3035C218.066 87.4821 216.832 86.6607 215.186 85.8393C212.306 83.7857 209.837 81.7321 206.546 79.6785C204.489 78.4464 202.02 77.2143 199.551 76.8035C200.374 75.5714 201.197 73.9285 201.608 72.2857C203.254 68.5893 203.666 64.8928 203.666 61.1964C204.077 57.0893 204.077 53.3928 206.546 50.1071C208.192 47.6428 204.077 43.9464 202.02 46.8214C200.374 48.875 198.728 50.1071 195.848 50.1071C193.379 50.1071 190.499 49.2857 188.031 49.2857C184.739 49.2857 182.27 49.6964 180.213 51.3393C180.625 49.2857 181.036 47.2321 181.036 45.1785C181.036 41.4821 180.213 37.7857 179.39 34.5C178.567 30.8035 178.156 27.5178 180.213 24.2321C181.859 21.3571 177.744 19.3035 176.099 21.7678C175.276 23 171.984 23.4107 170.338 23.8214C168.281 24.2321 165.812 23.8214 163.344 23.8214C159.641 23.8214 156.349 24.2321 153.057 26.2857C151.823 27.1071 151 27.5178 149.766 28.3393C149.766 27.5178 149.766 26.6964 149.766 25.875C149.766 23 148.532 19.7143 147.297 17.25C146.063 14.375 144.006 12.3214 142.36 9.85712C140.303 7.39283 139.068 4.51783 138.657 1.64283C138.245 -1.23216 134.542 -0.821451 133.719 1.64283C132.485 4.92855 130.428 6.57141 127.548 7.80355C124.667 9.03569 121.376 10.2678 118.496 11.9107C116.027 13.5535 114.381 16.4285 113.147 19.3035C112.324 17.6607 111.09 16.0178 109.444 14.375C107.387 12.3214 104.918 10.6785 102.449 8.62498C99.9805 6.5714 97.9233 4.51783 96.689 1.64283C95.8661 -2.22728e-05 93.3974 -2.22728e-05 92.5745 1.64283C91.3401 4.51783 90.1058 7.39283 88.0485 9.85712C85.9913 12.3214 83.5226 14.7857 81.8768 17.6607C80.231 20.125 79.4081 23 79.4081 26.2857C78.9966 25.875 78.9967 25.875 78.5852 25.4643C76.1165 23.4107 72.8249 22.1785 69.5333 21.7678C65.8303 21.3571 62.5387 22.1785 58.8357 22.1785C55.9555 22.1785 53.4868 21.7678 51.0181 21.3571C50.6067 20.9464 50.1952 20.125 49.7838 19.7143C48.9609 18.8928 47.7265 19.3035 48.138 20.5357C48.138 20.9464 48.138 20.9464 48.138 21.3571C47.7265 21.7678 47.7265 22.1785 48.138 22.1785C48.138 22.5893 48.138 23 48.138 23C48.138 23.8214 48.138 24.6428 48.138 25.4643C48.138 27.1071 47.7265 28.75 47.7265 29.9821C47.3151 33.2678 46.0807 36.5535 46.4922 40.25C46.4922 42.7143 47.3151 45.1785 48.138 47.6428C46.0807 46.8214 43.612 46 41.5548 46C39.909 46 37.8518 46.4107 36.206 46.4107C34.5602 46.8214 32.9144 47.2321 30.8571 47.6428C27.1541 48.4643 23.451 47.6428 19.748 47.2321C18.9251 47.2321 18.1022 48.4643 18.5137 48.875C18.5137 49.2857 18.9251 49.2857 18.9251 49.6964C18.9251 49.6964 18.9251 49.6964 18.5137 49.6964C18.1022 49.6964 17.6908 50.5178 18.1022 50.9285C18.9251 51.75 18.9251 52.5714 18.9251 53.3928C18.9251 55.0357 18.9251 56.2678 18.5137 57.9107C18.1022 60.7857 17.2793 63.6607 18.1022 66.9464C18.9251 71.4643 22.2167 74.75 26.3312 77.625C23.8625 77.625 21.8052 78.0357 19.3366 78.8571C16.4564 79.6785 13.9877 81.7321 11.519 83.375C10.2847 84.1964 8.63888 85.4285 6.99308 86.25C5.75874 87.0714 4.52439 87.4821 3.29004 87.8928L2.87859 88.3035C2.0557 88.3035 1.64425 88.7143 1.2328 89.125C1.2328 89.5357 1.2328 89.9464 1.2328 90.3571C1.2328 90.7678 1.64425 90.7678 2.0557 90.7678L2.46714 91.1785C2.87859 91.5893 3.29004 91.5893 3.70149 92C4.52439 93.2321 4.93584 94.4642 5.34729 95.6964C6.58163 98.5714 6.99308 101.857 8.63888 104.732C10.6961 109.25 14.8106 111.714 19.3366 113.357C17.2793 114.589 15.2221 116.232 13.5763 117.875C11.519 119.929 10.6961 122.393 9.05033 124.857C7.81598 126.5 5.75874 129.375 3.29004 128.964C1.2328 128.554 -0.0015495 131.429 1.64425 132.25C4.52439 133.893 7.40453 136.768 9.87323 138.821C12.3419 142.929 15.6335 145.804 19.3366 147.857C20.9823 148.679 22.6281 149.5 24.2739 149.911C23.0396 151.964 22.6281 154.429 22.2167 156.893C21.3938 163.054 23.451 170.446 19.748 175.786C18.9251 177.018 20.1595 179.071 21.8052 179.071C26.3312 178.661 30.4457 180.304 34.9716 181.125C38.6747 181.946 42.7891 182.768 46.4922 181.946H46.9036C46.0807 184.411 46.4922 187.696 46.9036 190.161C47.3151 193.036 48.138 196.321 48.5494 199.196C48.5494 200.018 48.5494 200.839 48.5494 201.25C48.5494 201.661 48.5494 202.071 48.5494 202.071C48.5494 202.482 48.5494 202.482 48.5494 202.482C48.138 204.125 47.7265 204.536 46.9036 206.179C46.0807 208.643 48.9609 210.696 51.0181 209.464C54.3097 207.411 58.8357 207.411 62.5387 207.411C66.6532 207 69.9448 206.179 73.6478 204.946C74.8822 204.536 76.1165 203.714 77.3509 202.893C77.7623 205.357 78.5852 207.821 79.8195 209.875C83.5226 216.036 89.6943 220.554 92.163 227.536C92.9859 230 97.5119 230 97.1004 226.714C96.689 220.143 104.506 219.321 109.032 216.857C111.501 215.625 113.558 213.161 115.204 210.696C116.027 212.75 117.673 213.982 119.319 215.625C120.964 216.857 122.61 217.268 124.256 217.679C125.902 218.089 127.959 218.089 129.605 218.911C132.896 220.143 134.542 223.429 137.011 225.893C139.48 227.946 143.183 225.482 141.537 222.196C140.303 219.732 141.125 217.268 142.771 215.214C144.417 212.75 146.474 210.286 147.709 207.821C148.532 205.768 149.354 203.714 149.766 201.25C151.412 202.893 153.057 204.536 154.703 205.768C157.995 207.821 162.109 207.411 165.812 207.411C169.927 207 174.041 206.589 177.333 209.464C179.802 211.929 184.328 208.643 182.27 205.768C180.213 202.893 180.213 200.429 181.036 197.143C181.859 193.857 183.093 190.161 183.093 186.464C183.093 184 182.27 181.536 181.447 179.071C183.505 179.893 185.973 179.893 188.031 179.482C190.911 179.071 194.202 178.661 197.083 178.661C199.14 178.661 201.197 178.661 203.254 179.482C203.666 179.893 204.077 180.304 204.9 180.714C208.192 182.357 210.66 177.839 207.78 175.786C204.9 174.143 205.311 170.857 205.723 167.982C206.134 164.286 206.957 161 206.546 157.304C206.134 155.25 205.723 153.196 204.489 151.554C206.957 151.143 209.426 150.321 211.483 149.089C215.598 146.214 220.124 140.054 225.884 141.286C227.53 141.696 228.764 140.875 229.587 139.643C230.41 138.411 229.998 136.768 228.764 135.946ZM191.734 54.2143C194.202 54.625 197.083 55.0357 199.14 54.625C198.317 59.1428 198.317 63.6607 197.083 68.1785C196.26 71.0535 194.614 73.9285 192.557 75.9821C191.734 77.2143 190.499 78.0357 189.265 78.8571C188.854 79.2678 188.031 79.2678 187.619 79.6785C186.796 78.0357 185.973 76.3928 184.739 74.75C181.859 70.2321 178.979 65.7143 175.687 61.1964C176.51 59.9643 177.744 58.7321 178.156 57.0893C178.567 57.0893 178.567 57.0893 178.979 56.6785C180.625 55.0357 182.27 53.3928 184.739 52.9821C187.208 52.5714 189.676 53.8035 191.734 54.2143ZM157.995 28.75C161.286 27.5178 165.401 28.3393 168.693 28.3393C170.338 28.3393 172.396 28.3393 174.041 27.9285C173.63 32.4464 175.276 37.375 175.687 41.8928C176.099 44.7678 175.687 48.0535 174.453 50.5178C173.63 51.75 172.807 53.3928 171.984 54.625C171.573 55.0357 171.573 55.4464 171.161 55.8571C164.989 48.875 156.349 43.5357 147.297 39.8393C148.532 38.6071 148.532 36.1428 148.943 34.5C149.354 34.0893 149.766 33.6785 149.766 33.6785C152.235 31.2143 155.115 29.5714 157.995 28.75ZM116.85 21.7678C118.084 18.4821 120.142 16.4285 123.433 14.7857C126.313 13.5535 129.193 12.7321 132.074 11.5C133.308 10.6785 134.542 9.4464 135.777 8.21426C137.422 11.0893 139.48 13.5535 141.125 16.8393C142.36 18.8928 143.594 21.7678 143.594 24.2321C143.594 26.6964 143.183 29.1607 142.36 31.625C141.948 33.2678 141.537 35.3214 141.537 37.375C138.657 36.1428 135.777 35.3214 132.896 34.0893C127.548 32.4464 122.199 31.2143 116.027 31.2143C116.027 30.3928 115.616 29.1607 115.616 28.3393C115.616 27.9285 115.204 27.5178 115.204 26.6964C115.616 25.0535 116.027 23.4107 116.85 21.7678ZM83.1111 26.2857C83.5226 23.4107 84.7569 20.9464 86.8142 18.8928C89.6943 15.6071 93.3974 12.3214 95.4546 8.62498C98.3348 11.9107 101.626 14.375 104.918 17.25C106.975 19.3035 108.621 22.1785 109.444 25.0535C109.855 26.6964 110.267 27.9285 110.267 29.5714C110.267 29.9821 110.267 30.8035 110.678 31.2143C102.449 31.625 94.2203 32.8571 86.4027 35.7321C86.4027 35.3214 86.4027 34.9107 85.9913 34.0893C85.5798 32.8571 84.7569 32.0357 83.934 31.2143C83.934 30.8035 83.5226 30.3928 83.5226 29.9821C82.6997 28.75 82.6997 27.5178 83.1111 26.2857ZM23.8625 68.5893C23.451 67.7678 23.451 67.3571 23.0396 66.5357C23.0396 66.125 23.0396 65.7143 23.0396 65.7143C23.0396 62.4285 23.451 59.5535 22.6281 56.2678C22.6281 55.0357 21.8052 53.8035 20.9823 52.5714C25.9197 54.625 32.0915 52.9821 37.4403 52.5714C39.909 52.5714 42.3777 52.9821 44.8464 54.2143C47.3151 55.4464 49.3723 57.5 51.4296 58.7321C46.4922 60.7857 41.5548 70.6428 39.909 73.5178C39.0861 74.75 38.6747 76.3928 37.8518 77.625C37.4403 77.2143 37.0289 77.2143 36.6174 76.8035C33.3258 75.9821 29.6228 74.3393 27.1541 72.2857C25.9197 71.0535 24.6854 69.8214 23.8625 68.5893ZM14.3992 104.732C13.9877 103.911 13.1648 103.089 12.7534 102.268C12.7534 101.857 12.3419 101.446 12.3419 101.446C12.3419 101.446 12.3419 101.446 12.3419 101.036C11.1076 97.75 9.87323 94.4643 7.81598 92C7.40453 91.5893 7.40453 91.1785 6.99308 91.1785C8.22743 90.7678 9.46178 90.3571 10.6961 89.9464C13.5763 88.7143 16.045 86.6607 18.9251 85.4285C21.3938 84.6071 24.2739 84.1964 27.1541 84.6071C28.3884 84.6071 30.0342 84.6071 31.2686 85.0178C32.9144 85.4285 33.3258 85.4285 34.5602 86.25C34.9716 86.25 35.3831 86.6607 35.3831 86.6607C32.5029 94.4643 30.8571 102.679 30.4457 110.893H30.0342C26.3312 110.893 22.6281 110.482 19.3366 108.839C16.8679 107.196 15.6335 105.964 14.3992 104.732ZM6.58163 132.25C9.46178 130.196 11.1076 126.5 13.1648 124.036C14.8106 121.982 16.8679 120.339 19.3366 119.107C21.8052 117.875 25.0968 116.232 27.977 117.054C28.3884 117.054 28.7999 117.054 29.6228 117.054C29.6228 126.089 30.8571 135.125 33.7373 143.75C31.68 143.75 30.0342 144.161 28.3884 144.982C25.0968 144.982 22.2167 142.929 19.748 141.286C15.2221 138.821 11.1076 134.714 6.58163 132.25ZM45.2578 177.018C41.9662 177.429 38.2632 176.607 34.9716 176.196C32.0915 175.786 28.7999 175.786 25.9197 175.375C26.7426 173.732 27.1541 171.679 27.1541 170.036C27.5655 166.75 27.977 163.054 27.977 159.768C27.977 156.893 28.3884 153.607 29.2113 151.554C29.2113 151.143 29.6228 151.143 29.6228 150.732H30.0342C31.68 150.321 33.7373 149.911 34.9716 148.679C36.206 151.554 37.4403 154.018 38.6747 156.482C42.3777 162.643 46.9036 167.571 51.841 172.911C50.6067 175.375 48.5494 177.018 45.2578 177.018ZM70.7677 200.839C67.4761 202.071 64.1845 202.482 60.4814 202.893C58.4242 202.893 56.7784 203.304 54.7212 203.304H54.3097C54.3097 199.607 53.0754 195.089 52.2525 192.214C51.4296 189.339 50.6067 186.875 50.6067 184C50.6067 182.357 51.0181 181.125 51.841 179.893C53.4868 179.071 54.7212 177.839 55.9555 176.607C60.07 180.714 64.5959 184.821 69.9448 187.696C74.4707 190.161 78.1738 183.179 74.0593 181.125C68.299 177.839 63.3616 173.732 58.8357 168.804C54.7212 164.286 50.1952 159.768 46.9036 154.429C40.7319 144.161 38.2632 131.839 38.2632 119.518C37.8518 106.375 40.3204 93.2321 45.2578 80.9107C46.4922 77.625 48.138 73.9285 49.7838 70.6428C50.6067 68.5893 51.841 66.5357 53.0754 64.8928C53.4868 64.0714 54.7212 61.6071 55.5441 60.7857C55.9555 60.375 56.367 59.5535 55.5441 59.1428C55.1326 58.7321 54.7212 58.7321 54.3097 58.3214L54.7212 57.9107C55.1326 57.0893 55.5441 56.2678 55.5441 55.4464C56.367 54.625 56.367 53.3928 55.5441 52.1607C54.3097 50.1071 52.6639 48.0535 51.4296 46C50.1952 43.9464 49.7838 41.4821 50.1952 39.0178C50.1952 35.7321 51.0181 32.8571 51.0181 29.5714C51.0181 28.3393 51.0181 27.5178 50.6067 26.2857C54.7212 27.9285 60.07 27.5178 64.5959 27.9285C67.4761 28.3393 69.9448 29.5714 72.002 31.2143C74.4707 33.2678 76.1165 36.1428 78.5852 38.6071C72.002 41.8928 65.8303 46.4107 61.3043 52.5714C59.2471 55.0357 63.3616 57.9107 65.4188 55.8571C81.0539 39.4285 108.621 35.3214 129.605 42.3035C141.948 46.4107 156.761 52.5714 165.401 62.8393C169.515 67.7678 173.63 72.6964 176.922 78.0357C178.156 79.6785 179.39 81.7321 180.625 83.375C181.036 83.7857 181.447 84.1964 181.859 84.6071C181.859 86.25 182.682 87.8928 185.15 88.3035C185.562 89.125 186.796 89.125 186.796 88.3035V87.8928C189.676 87.0714 192.968 84.1964 195.025 82.5535C195.437 82.5535 196.26 82.5535 196.671 82.9643C198.728 83.7857 201.608 85.4285 203.666 87.0714C207.369 89.9464 211.072 93.2321 215.598 95.2857C213.54 98.1607 211.895 101.446 209.837 104.321C208.192 106.786 206.546 108.429 203.666 109.661C201.608 110.482 199.14 110.893 196.671 110.893C195.848 110.893 195.025 110.893 193.791 111.304C193.791 109.25 193.379 107.196 193.379 105.554C192.968 101.446 185.973 102.679 186.385 106.375C187.619 121.571 186.385 137.589 178.979 151.143C172.396 163.054 162.109 173.732 151 181.125C139.068 188.929 123.845 195.089 109.444 192.625C99.9805 191.393 89.6943 191.804 81.0539 187.696C80.231 187.286 79.4081 187.696 79.4081 188.518C79.4081 189.75 80.231 190.982 80.6424 191.804C78.9967 193.857 77.7623 195.911 76.1165 197.554C75.7051 198.786 73.2364 200.018 70.7677 200.839ZM104.095 214.393C100.392 216.446 96.2775 218.089 94.2203 221.375C91.7516 217.679 88.46 214.393 85.1684 211.107C82.6997 208.232 81.0539 204.946 80.6424 201.661C81.0539 201.25 81.4653 201.25 81.4653 200.839C83.5226 199.196 85.5798 196.732 86.4027 194.268C92.5745 196.732 102.449 196.732 106.975 197.554C109.032 197.964 111.09 198.375 112.735 198.375C112.324 201.661 111.913 204.946 110.267 208.232C109.032 211.107 106.975 212.75 104.095 214.393ZM141.537 208.232C139.891 211.107 137.422 213.982 136.188 217.268C135.365 216.857 134.954 216.446 134.131 216.036C132.485 215.214 130.839 214.393 129.193 214.393C127.548 213.982 125.49 213.982 123.845 213.571C120.964 212.75 119.319 210.286 118.084 207.821C118.084 207.411 117.673 207.411 117.673 207C118.496 204.536 119.319 201.661 119.319 199.196C123.433 199.196 127.548 198.786 131.662 197.554C135.777 196.321 139.891 195.089 143.594 193.446C143.594 193.857 144.006 194.268 144.006 194.679C144.417 196.321 144.417 198.375 144.417 200.018C144.417 202.893 143.183 205.768 141.537 208.232ZM170.338 202.071C166.635 202.482 162.932 203.304 159.229 202.482C156.349 201.661 153.88 199.196 151.823 197.143C151.412 196.732 151 195.911 150.589 195.5C150.589 193.857 150.177 192.214 149.354 190.571C151 189.75 152.646 188.929 153.88 187.696C160.052 183.589 165.812 179.071 171.161 173.732C171.984 175.375 173.218 176.607 174.041 177.839C176.099 180.714 177.333 184.821 177.333 188.518C176.921 191.804 175.687 194.679 174.864 197.964C174.453 199.196 174.864 200.429 174.864 201.661C173.63 202.071 171.984 202.071 170.338 202.071ZM191.322 175.786C187.619 176.607 183.505 177.018 180.213 175.375C179.39 174.143 178.567 172.911 177.744 171.679C177.333 170.857 176.922 170.446 176.51 169.625C176.51 169.214 176.099 169.214 176.099 169.214C181.859 162.643 186.385 155.25 189.676 147.446C192.968 148.679 196.26 149.911 198.728 152.375C201.197 154.839 202.431 157.714 202.431 161C202.02 165.107 200.786 170.036 201.608 174.143C197.494 174.554 194.202 175.375 191.322 175.786ZM211.895 144.161C209.837 146.214 207.369 147.857 204.077 148.268C203.254 148.268 202.843 148.268 202.02 148.268C199.14 145.393 195.437 143.75 191.322 142.107C194.202 134.304 195.437 126.089 195.848 117.875C198.317 118.286 201.197 118.696 203.666 119.518C207.369 120.75 210.66 122.393 212.718 125.268C214.775 127.732 216.009 131.018 217.655 133.482C218.478 134.714 219.301 135.946 220.124 136.768C217.243 138.821 214.363 141.696 211.895 144.161Z" fill="white"/>
</g>
<defs>
<clipPath id="clip0_9_23">
<rect width="230" height="230" fill="white"/>
</clipPath>
</defs>
</svg>
