<svg width="177" height="230" viewBox="0 0 177 230" fill="none" xmlns="http://www.w3.org/2000/svg">
<g opacity="0.1" clip-path="url(#clip0_9_30)">
<path d="M102.528 86.1983C91.4185 82.4686 78.2522 85.7839 66.7316 84.955C63.44 84.5406 60.1484 83.2974 56.8568 82.883C53.1538 82.883 49.0393 82.4686 45.3362 82.4686C38.7531 82.4686 31.7584 81.6397 25.1752 83.2974C22.2951 84.1262 22.2951 88.6848 25.1752 89.0992C31.7584 90.7568 38.7531 90.3424 45.3362 90.7568H45.7477C44.1019 94.4866 42.4561 97.3875 40.3989 100.703C37.9302 104.433 35.05 107.333 32.9928 111.478C29.2897 118.523 27.2325 125.982 29.7012 133.856C34.6386 147.946 50.6851 152.09 63.8514 149.604C66.7316 149.189 70.0232 147.946 73.3148 146.288C73.3148 146.288 73.3148 146.288 73.3148 146.703C72.9033 151.676 72.9033 156.234 73.3148 161.207C73.7262 167.009 82.3667 167.009 81.9552 161.207C81.5438 156.234 81.9552 151.676 81.9552 146.703C82.3667 138.829 81.9552 130.955 81.9552 123.496C81.9552 116.451 81.5438 109.406 81.5438 102.36C81.1323 98.2163 81.9552 93.2433 79.898 89.5136C82.7781 89.0992 85.6583 89.0992 88.5384 88.6848C91.4185 88.6848 94.2987 88.6848 96.7674 89.0992C98.4132 89.5136 100.47 89.928 102.116 88.6848C103.762 88.2704 103.762 86.6127 102.528 86.1983ZM76.1949 103.604C75.372 110.649 74.9606 117.694 74.5491 124.739C74.5491 128.054 74.1377 130.955 74.1377 134.27C73.3148 135.099 72.9033 135.928 72.0804 136.757C70.8461 137.586 69.2003 138.415 67.9659 139.243C65.0858 140.487 61.7942 141.315 58.9141 141.315C52.7423 142.144 45.7477 140.487 41.2218 135.514C36.2844 129.712 37.9302 122.667 40.3989 116.036C42.0447 111.892 43.6904 107.748 45.3362 103.189C46.5706 99.4596 48.2164 95.3154 48.6278 91.1713C51.508 91.1713 54.3881 91.5857 56.8568 91.1713C60.5599 91.1713 63.8514 89.5136 67.5545 89.5136C71.2575 89.5136 74.5491 89.5136 78.2522 89.5136C78.6636 94.0722 76.6064 99.0451 76.1949 103.604Z" fill="white"/>
<path d="M57.2684 74.1802C58.0913 74.1802 58.9142 74.5946 60.1485 74.1802C60.1485 74.1802 60.1485 74.1802 60.56 74.1802H60.1485C61.7943 74.5946 63.8516 74.1802 65.0859 72.937C66.3203 71.6937 67.1432 69.6217 67.1432 67.964C67.1432 67.5496 67.1432 66.7208 67.1432 65.8919V65.4775C67.1432 63.8199 66.3203 62.1622 64.6745 60.919C63.4401 60.0901 61.7943 59.6757 60.1485 59.6757C58.5028 59.6757 56.857 60.0901 55.6226 61.3334C55.2112 61.7478 55.2112 61.7478 55.2112 62.1622C54.3883 62.5766 53.5654 63.4055 53.1539 64.2343C52.331 66.3064 52.331 68.3784 53.1539 70.4505C53.9768 72.937 55.6226 74.1802 57.2684 74.1802Z" fill="white"/>
<path d="M175.766 151.676C174.943 151.261 174.12 150.847 173.297 150.432C170.417 148.36 169.594 144.631 169.594 141.315C169.594 136.757 170.006 132.613 168.36 128.469C166.303 123.496 162.188 119.766 157.251 117.694C159.308 116.451 160.954 114.793 162.6 112.721C165.48 108.991 166.303 104.433 167.126 99.8739C167.949 96.5586 169.183 94.0721 171.24 91.5857C172.475 91.5857 173.297 90.3424 173.709 89.5136C173.709 89.0992 173.709 89.0992 174.12 88.6848C175.355 85.7839 172.886 83.7118 170.417 84.5406C167.949 83.2974 166.303 81.6397 164.657 79.1532C162.188 76.2523 160.543 72.937 157.662 70.8649C154.371 67.964 149.845 66.3064 145.319 66.3064C146.553 62.1622 146.965 57.6037 146.142 53.8739C145.73 51.3875 140.381 40.6127 140.793 36.8829C141.616 36.0541 142.85 35.2253 143.262 34.3965C144.496 32.3244 142.439 30.2523 140.382 30.6667C138.324 31.4956 136.267 32.3244 134.21 32.7388C131.741 33.1532 129.272 33.1532 127.215 32.7388C123.512 32.3244 119.809 31.91 115.695 32.7388C114.049 33.1532 111.992 33.5676 109.934 33.982C109.934 31.4956 109.523 29.0091 108.7 26.5226C107.466 22.7929 104.997 19.4775 102.117 16.9911C99.2366 14.5046 93.8878 11.1892 93.8878 7.0451C93.8878 4.97303 91.4191 4.1442 89.7733 5.38745C88.1275 6.63069 86.8931 8.28835 84.8359 9.11718C83.1901 9.946 81.5443 10.3604 79.8985 10.7748C76.1954 11.6037 72.081 12.4325 68.7894 14.5046C65.4978 16.5766 62.6176 19.4775 60.5604 22.7929C60.5604 23.2073 60.1489 23.2073 60.1489 23.6217C58.0917 19.0631 54.8001 15.3334 51.0971 12.8469C47.394 10.7748 43.2795 10.3604 39.165 9.11718C35.462 7.87393 32.9933 4.97303 30.9361 1.65772C29.2903 -0.414356 25.9987 5.83504e-05 25.9987 2.90096C25.9987 12.0181 19.8269 18.6487 17.3582 26.937C16.1239 30.6667 16.5353 34.3965 17.7697 37.7118C14.0667 34.3965 9.95216 31.4956 5.01477 30.2523C1.31173 29.4235 -2.39132 29.4235 -6.50581 29.8379C-10.2088 30.2523 -15.1462 31.0811 -18.4378 28.1802C-18.4378 28.1802 -18.4378 28.1802 -18.8493 28.1802C-20.0836 27.3514 -21.7294 28.1802 -21.318 30.2523C-20.0836 35.2253 -20.9065 40.6127 -21.7294 45.5856C-22.5523 50.1442 -22.9638 54.7028 -22.1409 59.6757C-21.7294 62.5766 -20.4951 66.3064 -18.4378 69.2073C-21.7294 69.2073 -25.4325 69.6217 -28.7241 70.8649C-33.25 72.5226 -36.953 75.4235 -40.2446 78.3244C-43.1248 80.8109 -45.5935 83.2974 -49.2965 84.955H-49.708C-49.708 84.955 -50.9423 84.955 -50.1194 84.955C-50.5309 84.955 -50.5309 84.955 -50.9423 84.955C-51.7652 84.955 -52.5881 85.7839 -52.5881 86.6127C-52.5881 86.1983 -52.5881 87.0271 -52.5881 87.0271C-52.5881 87.4415 -52.1767 87.8559 -51.7652 87.8559L-50.9423 89.0992C-50.1194 89.928 -49.708 91.1712 -49.2965 92.4145C-48.0622 94.901 -46.8278 97.3875 -46.0049 100.288C-46.0049 100.703 -45.5935 100.703 -45.5935 101.117C-45.5935 101.532 -45.182 101.946 -45.182 102.36C-44.7706 103.604 -43.9477 105.261 -43.5362 106.505C-41.8904 110.234 -39.0103 113.135 -35.7187 115.207C-34.4843 116.036 -33.6614 116.451 -32.4271 116.865C-34.8958 118.108 -36.953 119.766 -38.5988 121.838C-41.0675 124.739 -42.7133 127.64 -43.9477 131.369C-44.7706 132.613 -45.5935 135.928 -46.4164 138.414C-46.8278 139.243 -47.2393 140.072 -47.6507 140.487C-48.0622 141.315 -48.4736 141.73 -48.8851 142.144C-50.1194 143.387 -51.3538 143.802 -52.5881 145.46C-53.411 146.703 -52.5881 147.946 -51.7652 148.36C-51.7652 148.36 -51.7652 148.775 -51.3538 148.775C-50.9423 149.189 -50.1194 149.189 -49.2965 148.775C-48.8851 149.189 -48.0622 149.604 -47.6507 149.604C-46.0049 150.847 -44.7706 152.09 -43.1248 153.333C-40.6561 155.82 -38.1874 158.721 -34.8958 160.378C-30.3698 162.865 -25.4325 163.694 -20.4951 163.694C-20.4951 163.694 -20.4951 163.694 -20.0836 163.694C-20.4951 164.108 -20.4951 164.523 -20.4951 164.937C-22.1409 167.838 -22.5523 171.153 -22.5523 174.469C-22.5523 178.613 -21.318 182.342 -20.4951 186.487C-20.0836 189.802 -21.318 193.946 -18.8493 196.847C-17.2035 198.919 -13.9119 199.333 -11.4432 199.748C-8.1516 200.162 -4.86001 200.162 -1.56842 200.162C1.31172 200.162 4.60332 200.162 7.48346 199.333C9.95215 198.505 12.0094 197.261 14.0666 196.018C14.0666 199.333 14.4781 203.063 16.1239 205.964C18.1811 209.694 21.0613 212.18 23.53 215.496C25.9987 218.811 26.8216 223.369 28.0559 227.099C28.8788 229.586 31.759 230.414 33.8162 228.757C36.6963 225.856 39.5765 222.955 43.691 221.712C47.8055 220.469 51.5085 219.64 54.3887 216.739C56.8574 214.252 58.0917 211.351 58.9146 208.036V208.451C60.5604 212.595 63.852 215.081 67.9665 216.739C71.2581 217.982 74.9611 218.396 78.6642 219.64C81.9557 220.883 84.4244 222.541 86.4817 225.856C88.1275 228.757 92.242 227.928 93.0649 225.027C95.1221 217.982 100.882 213.009 104.174 206.793C104.997 205.135 105.82 203.478 105.82 201.405C107.877 202.649 110.346 203.892 113.226 204.306C118.163 205.135 123.101 204.306 128.038 202.649C132.564 200.991 137.501 199.333 142.439 200.991C146.142 202.234 147.788 197.261 145.73 194.775C142.85 191.045 144.085 187.315 145.319 182.757C146.553 178.613 146.965 174.469 145.73 170.324C145.319 168.667 144.907 167.423 144.085 165.766C146.553 166.18 149.022 166.18 151.491 165.351C155.605 164.523 158.897 161.622 162.188 159.135C165.48 156.649 169.594 152.919 173.709 154.991C176.178 157.063 178.235 153.333 175.766 151.676ZM145.73 71.2793C149.433 72.5226 152.725 74.5947 155.194 77.91C158.074 81.6397 160.543 86.6127 164.657 89.5136C163.834 90.7568 162.6 92.0001 162.188 93.6577C160.543 97.8019 160.543 101.946 158.897 106.09C156.839 110.649 152.725 113.55 148.199 114.793C146.965 114.793 145.73 114.793 144.496 114.793C143.673 114.793 143.262 115.207 142.85 115.622C142.027 103.189 137.913 90.7568 132.564 79.5676C132.564 79.1532 132.153 79.1532 132.153 79.1532C132.975 79.5676 134.21 79.5676 135.033 78.7388C138.324 77.0811 140.382 74.5947 142.439 71.6938C143.673 71.2793 144.907 71.2793 145.73 71.2793ZM118.986 37.7118C123.101 38.1262 126.804 38.955 130.918 38.955C132.564 38.955 134.21 38.955 135.444 38.5406C135.444 43.0992 137.09 47.6577 138.324 51.8019C138.324 52.2163 138.324 52.6307 138.736 53.0451V53.4595C138.736 54.2884 138.736 55.5316 138.736 56.3604C138.736 58.4325 138.324 60.5046 137.501 62.5766C136.267 66.3064 134.21 69.6217 130.918 71.6938C130.095 72.1082 129.272 72.937 129.272 73.7658C123.101 63.8199 114.872 54.2884 105.408 47.6577C107.877 46.0001 109.111 42.2703 109.523 39.3694C109.934 39.3694 110.346 38.955 110.757 38.955C113.226 37.7118 116.106 37.2974 118.986 37.7118ZM66.7321 21.964C68.7894 19.4775 71.6695 17.8199 74.9611 16.9911C80.3099 15.3334 86.4817 14.919 90.5962 11.1892C91.0076 11.6037 91.4191 12.4325 91.8305 13.2613C92.6534 14.919 93.8878 16.1622 95.1221 17.4055C97.5908 19.892 99.6481 22.3784 100.882 25.6938C102.117 29.0091 102.117 32.3244 102.117 35.6397C102.117 36.4685 102.117 36.8829 101.705 37.7118C101.705 38.1262 101.294 39.3694 101.294 39.3694C100.882 40.6127 100.059 41.0271 99.648 42.2703C99.2366 42.6847 99.2366 43.0992 99.2366 43.5136C87.716 37.2974 73.7268 35.2253 60.9718 34.8109C62.2062 34.3965 63.0291 33.5676 63.4405 32.3244C64.2634 32.3244 64.6749 31.4956 64.2634 30.6667C62.6176 27.7658 65.0863 24.0361 66.7321 21.964ZM23.53 25.2793C25.9987 19.892 29.2903 14.919 30.5246 9.11718C31.759 9.946 32.5819 11.1892 33.8162 12.0181C37.1078 14.5046 41.2223 14.919 45.3368 16.1622C52.7429 18.6487 55.623 26.1082 56.8574 33.1532C57.2688 34.3965 57.6803 35.2253 58.9146 35.2253C48.6284 35.2253 34.6391 36.0541 24.7643 41.8559C23.9414 40.1983 22.7071 38.1262 22.2956 36.4685C21.0613 32.3244 21.8842 28.5947 23.53 25.2793ZM-37.7759 101.946C-40.2446 97.3875 -42.3019 92.8289 -45.182 88.6848C-45.182 88.6848 -45.182 88.6847 -45.5935 88.2703C-39.4217 86.6127 -34.8958 79.9821 -28.7241 77.4956C-23.7867 75.4235 -15.5577 74.5947 -11.0317 78.3244C-11.0317 78.3244 -10.6203 78.3244 -10.6203 78.7388C-12.2661 82.0541 -13.9119 85.3694 -15.1462 88.6848C-18.0264 95.7298 -19.2607 103.604 -20.0836 111.063C-21.318 110.649 -22.5523 110.234 -23.7867 110.234C-25.8439 109.82 -28.3126 109.405 -30.3698 108.577C-34.0729 106.919 -36.1301 104.847 -37.7759 101.946ZM-23.3752 156.234C-27.0783 155.82 -30.7813 154.991 -34.0729 152.919C-37.3645 150.433 -40.6561 147.946 -44.3591 146.703C-43.1248 145.46 -42.3019 144.216 -41.479 142.973C-39.4217 139.658 -38.5988 135.514 -36.953 131.784C-36.953 131.784 -36.953 131.369 -36.5416 131.369C-36.5416 130.955 -36.1301 130.541 -36.1301 130.126C-35.7187 129.297 -35.3072 128.469 -34.4843 127.64C-33.25 125.982 -32.0156 124.324 -30.3698 123.496C-28.7241 122.252 -27.4897 121.838 -25.4325 121.423C-23.7867 121.009 -22.1409 121.423 -20.0836 121.423C-20.0836 128.054 -19.2607 134.685 -17.2035 140.901C-15.9691 145.46 -14.3233 150.018 -11.8546 154.162C-13.5004 154.991 -14.3233 155.405 -16.3806 155.82C-18.4378 156.234 -21.318 156.234 -23.3752 156.234ZM4.60332 194.36C1.31172 195.189 -2.39132 195.189 -5.68291 195.604C-8.56305 195.604 -11.0317 196.018 -13.9119 196.018C-13.089 193.117 -13.089 189.802 -13.5004 187.315C-14.3233 182.342 -15.9691 177.784 -15.9691 173.225C-15.9691 169.91 -14.3233 167.009 -12.2661 164.523C-11.8546 164.108 -11.4432 163.694 -11.0317 163.279C-9.7974 162.865 -8.56305 162.451 -7.74015 161.622C-1.97987 171.153 6.24912 179.442 15.301 185.658C14.4781 186.487 14.0667 187.73 13.2438 188.559C10.7751 191.46 7.89491 193.532 4.60332 194.36ZM39.5765 216.739C37.5192 217.568 35.462 219.225 33.4048 220.469C32.9933 218.396 32.1704 216.324 30.9361 214.667C28.8788 210.937 25.5872 208.451 23.1185 205.135C21.0613 202.234 20.2384 198.919 20.2384 195.604C20.2384 193.532 20.2384 191.045 20.2384 188.973C29.7017 194.775 40.3994 198.919 51.0971 200.577C52.3314 200.577 53.1543 200.991 54.3887 200.991C53.1543 205.135 53.1543 209.694 49.8627 213.009C46.5711 215.496 42.8681 215.496 39.5765 216.739ZM96.7679 205.964C94.2992 210.108 91.4191 213.838 88.9504 217.568C87.716 216.324 86.0702 215.081 84.4244 214.252C81.1328 212.595 77.4298 212.18 74.1382 211.351C70.8466 210.523 67.555 209.694 65.4978 206.378C64.6749 204.721 64.2634 203.478 63.4405 201.82C68.3779 201.82 73.3153 201.82 78.2527 200.991C85.2473 199.748 95.1221 197.676 98.0023 190.216V189.802C98.0023 190.216 98.0023 190.631 98.0023 191.045C98.4137 193.117 99.2366 194.775 99.2366 196.847C99.648 200.162 98.8252 203.063 96.7679 205.964ZM116.929 198.919C113.637 198.919 110.346 198.505 107.466 196.018C107.054 195.604 106.643 195.189 106.231 194.775C105.82 192.703 105.408 191.045 104.997 189.387C104.585 188.559 104.585 187.73 103.763 186.901C103.763 186.901 104.174 186.901 104.174 186.487C109.111 183.586 114.049 180.27 115.695 174.883C116.106 174.054 114.872 173.225 114.049 174.054C110.757 177.784 105.82 180.685 101.294 183.171C98.8251 184.414 96.3564 185.658 93.4763 186.901C90.5962 187.315 88.5389 188.559 86.0702 189.802C82.7786 191.045 79.487 191.874 75.784 192.288C68.7894 193.532 61.7947 193.117 54.8001 192.288C41.2223 190.631 28.0559 184.414 17.3582 176.126C-6.91725 158.306 -17.2035 125.982 -9.7974 96.5586C-7.74015 88.2703 -4.03711 80.3965 0.488827 72.937C2.95752 69.2073 5.42621 65.4775 8.30636 62.1622C10.7751 59.2613 14.0666 56.7748 14.4781 52.6307C14.4781 52.2163 14.0667 51.3875 13.6552 51.3875C9.95216 51.8019 7.48346 54.2884 5.01477 56.7748C1.72318 59.6757 -1.15697 62.9911 -4.03711 66.7208C-4.86001 67.964 -5.68291 69.2073 -6.50581 70.4505C-9.7974 69.6217 -12.2661 68.3784 -13.9119 65.0631C-15.5577 61.7478 -16.792 58.0181 -16.792 54.7028C-17.2035 50.1442 -15.5577 45.1712 -15.1462 40.6127C-14.7348 38.1262 -14.7348 35.6397 -15.1462 33.1532C-13.5004 33.5676 -12.2661 33.982 -10.2088 33.982C-6.50581 33.982 -2.39132 33.5676 1.31172 34.3965C8.30636 36.0541 13.2437 41.4415 18.1811 46.8289C17.7697 47.2433 17.7697 47.6577 17.3582 47.6577C16.5353 48.901 18.1811 50.1442 19.4155 49.7298C24.7643 46.8289 29.7017 43.928 35.462 42.6847C41.6337 41.0271 48.2169 40.6127 54.8001 40.6127C67.555 40.6127 80.7214 42.6848 92.242 48.0721C118.163 60.0902 134.621 91.1712 135.444 119.351C135.856 127.225 134.621 135.514 132.153 142.973C130.918 146.288 129.684 149.604 128.038 152.505C127.627 152.919 127.215 153.748 127.215 154.577C125.158 158.306 123.924 162.451 121.043 165.766C120.632 166.18 121.043 166.18 121.455 166.18C124.746 164.937 128.861 163.694 131.33 161.207C131.741 160.793 132.153 160.378 132.564 159.964C134.21 161.207 135.856 163.279 137.09 164.937C139.147 167.838 141.204 171.568 141.616 175.297C142.027 179.442 139.97 183.171 139.147 186.901C138.736 188.973 138.324 191.46 138.736 193.532C130.918 193.946 124.335 198.919 116.929 198.919ZM153.136 158.306C150.256 159.964 146.553 160.378 143.262 159.964C142.027 159.55 140.793 159.55 139.559 159.135C138.324 157.478 136.678 156.234 135.444 154.991C135.856 153.748 136.678 152.919 137.09 151.676C140.382 144.216 142.439 136.342 143.262 128.054C143.262 125.982 143.673 123.91 143.673 121.838C145.319 121.838 146.965 121.423 148.61 121.009C151.902 121.423 154.782 121.838 157.662 123.496C161.365 125.568 164.246 129.297 165.48 133.856C166.303 137.586 165.891 141.73 166.714 145.874C167.126 147.532 167.537 148.775 168.36 150.018C162.6 150.847 157.662 155.82 153.136 158.306Z" fill="white"/>
</g>
<defs>
<clipPath id="clip0_9_30">
<rect width="177" height="230" fill="white"/>
</clipPath>
</defs>
</svg>
