<svg width="230" height="230" viewBox="0 0 230 230" fill="none" xmlns="http://www.w3.org/2000/svg">
<g opacity="0.1" clip-path="url(#clip0_9_9)">
<path d="M130.761 98.2939C127.259 99.0709 123.756 101.791 121.81 104.899C119.865 108.395 119.865 112.28 119.865 115.777C119.865 118.108 120.254 124.324 117.53 125.101C116.362 125.49 114.805 124.713 113.249 124.324C112.081 122.382 110.525 120.439 108.579 118.885C107.411 118.108 106.633 117.72 105.465 116.943C105.854 116.943 106.244 116.554 106.633 116.554C109.746 115 112.47 112.28 113.638 108.784C115.973 102.179 111.303 94.7973 105.854 91.6892C100.406 88.1926 93.401 88.5811 87.5635 91.6892C82.5042 94.4088 79.0017 100.236 81.7259 106.064C82.8934 108.395 86.396 107.23 86.396 104.899C86.396 101.014 87.5635 98.6824 91.066 97.1284C94.9577 95.5743 98.8494 95.5743 102.352 98.2939C105.854 100.625 107.8 104.899 105.854 108.784C104.687 110.726 103.519 111.503 101.574 112.28C99.6278 112.669 97.6819 113.057 95.7361 114.611C93.7902 115.777 93.7902 119.274 96.5144 119.662C99.6278 120.439 102.741 120.439 105.465 122.382C106.244 122.77 107.022 123.547 107.411 124.324C107.411 124.713 107.411 125.101 107.8 125.49C108.19 126.267 108.968 127.044 109.357 127.821C109.746 128.986 110.135 129.764 110.135 130.929C110.135 133.649 109.357 136.757 107.022 138.699C105.076 140.253 102.741 140.642 100.406 141.03C96.5144 141.807 90.6768 141.419 87.1743 139.088C85.6176 137.922 84.4501 135.98 83.2826 134.426C82.8934 133.649 82.5042 132.872 82.5042 131.706C82.5042 131.318 82.5042 130.541 82.5042 130.541C84.0609 129.375 84.8393 127.432 83.6718 125.49C82.8934 123.936 80.1692 123.159 78.6125 124.324C73.1641 128.209 74.7208 134.426 78.2234 139.088C81.3367 143.75 85.2284 146.081 91.066 147.247C96.5144 148.024 102.741 147.635 107.8 144.916C112.47 142.196 115.195 137.145 115.195 131.706C117.53 132.095 119.475 132.095 121.81 130.541C128.037 125.878 125.313 117.72 126.091 111.503C126.87 106.064 133.486 103.345 138.156 106.064C142.437 108.395 145.55 113.446 145.939 118.108C146.328 121.216 145.55 124.324 143.215 126.267C140.491 128.598 136.988 129.375 133.486 129.375C131.151 128.986 128.816 131.706 128.816 134.037C128.816 136.757 130.761 138.311 133.486 138.699C142.047 139.088 149.831 132.872 152.166 124.713C154.112 118.108 151.387 110.726 147.107 105.676C143.604 99.4595 136.988 96.7399 130.761 98.2939Z" fill="white"/>
<path d="M107.022 87.027C110.135 88.9695 114.027 89.7466 117.53 89.3581C121.032 88.9696 124.145 88.1925 127.259 86.6385C130.372 85.0844 134.264 81.5878 133.096 78.0912C132.318 75.3716 128.816 74.206 126.87 76.5371C126.48 76.9256 126.091 77.3141 125.702 78.0912C125.702 78.0912 125.702 78.0912 125.702 78.4797C125.702 78.4797 125.313 78.8682 125.702 78.4797C125.702 78.4797 124.924 79.2567 125.702 78.4797C125.313 78.4797 125.313 78.8682 124.924 78.8682C124.535 79.2567 123.756 79.2567 123.367 79.6452H122.978C122.589 79.6452 122.589 80.0337 122.2 80.0337C121.81 80.0337 121.032 80.4223 120.643 80.4223C119.865 80.4223 119.475 80.8108 118.697 80.8108C118.308 80.8108 118.308 80.8108 117.919 80.8108C117.53 80.8108 117.14 80.8108 116.751 80.8108C116.362 80.8108 115.973 80.8108 115.973 80.8108C115.973 80.8108 115.195 80.8108 114.805 80.8108C114.416 80.8108 114.027 80.8108 114.027 80.8108C113.638 80.8108 113.249 80.8108 112.86 80.4223C112.86 80.4223 112.47 80.0337 112.081 80.0337C111.692 80.0337 111.692 79.6452 111.303 79.6452C110.914 79.6452 110.914 79.2567 110.524 79.2567H110.135C109.746 78.8682 108.968 78.0912 108.579 77.7027C107.411 76.5371 107.022 74.9831 105.465 74.206C103.519 73.0405 101.184 74.5946 101.184 76.5371C101.184 78.4797 102.352 80.8108 103.519 82.3648C103.909 84.3074 105.465 85.8614 107.022 87.027Z" fill="white"/>
<path d="M112.47 77.3141C112.47 77.7026 112.47 78.0911 112.86 78.4796C112.86 78.8682 113.249 79.2567 113.638 79.2567C114.027 79.6452 114.416 80.0337 115.195 80.0337C115.584 80.0337 115.973 80.0337 116.362 80.0337C117.14 80.0337 118.308 80.0337 119.086 79.6452C119.865 79.2567 120.643 78.8682 121.421 78.0911C122.2 77.3141 122.589 76.5371 122.589 75.76C122.978 74.983 122.589 73.8175 122.589 72.6519V73.0404C122.589 72.2634 122.2 71.0979 121.811 70.3209C121.421 69.5438 120.643 68.7668 119.865 68.3783C117.919 67.2127 115.195 67.9898 113.249 69.1553C112.081 69.9323 111.303 70.7094 110.914 72.2634C110.525 73.429 110.914 74.5945 111.303 75.3715C111.303 76.5371 112.081 76.9256 112.47 77.3141ZM117.919 72.2634C117.919 71.8749 117.919 72.2634 117.919 72.2634V72.2634ZM117.919 71.8749C117.53 71.8749 117.919 71.8749 117.919 71.8749V71.8749ZM115.195 72.2634C115.195 72.2634 115.584 72.2634 115.584 71.8749C115.973 71.8749 115.973 71.8749 116.362 71.4864H116.751H117.14H117.53C117.53 71.4864 117.53 71.4864 117.919 71.8749C117.919 71.8749 117.919 71.8749 117.919 72.2634C117.919 72.6519 117.919 72.6519 117.919 73.0404C117.919 73.429 117.919 73.8175 117.53 74.206C117.53 74.206 117.53 73.8175 117.919 73.8175C117.919 74.206 117.919 74.206 117.53 74.5945C117.53 74.983 117.14 74.983 117.14 75.3715C117.14 75.3715 117.14 75.3715 116.751 75.76C116.751 75.76 116.751 75.76 116.362 75.76H115.973C115.584 75.76 115.584 75.76 115.195 75.76C115.195 75.76 115.195 75.76 114.805 75.76H114.416C114.416 75.76 114.027 75.76 114.027 75.3715L113.638 74.983C113.638 74.983 113.638 74.5945 113.249 74.5945C113.249 74.5945 113.249 74.5945 113.249 74.206V73.8175L113.638 73.429C115.195 72.6519 115.195 72.6519 115.195 72.2634Z" fill="white"/>
<path d="M229.611 107.618C228.054 105.676 226.108 106.064 223.773 105.287C221.827 104.51 220.271 103.345 218.714 102.179C214.822 99.4594 211.32 95.9628 207.428 92.8547C206.261 91.6891 204.704 90.9121 203.536 89.7466C203.536 87.4155 203.536 85.0844 203.926 83.1418C204.315 81.5878 204.315 80.0337 205.871 78.8682C207.039 77.7027 208.596 76.9256 209.763 75.7601C210.152 75.7601 210.152 75.3716 210.541 75.3716C213.266 73.429 210.152 69.5439 207.428 69.9324C201.591 71.0979 197.31 66.8243 192.64 63.7162L192.25 63.3277C192.64 61.7736 192.64 60.6081 192.64 59.054C193.029 54.3918 191.861 50.5067 191.472 45.8446C191.083 43.125 190.694 39.6283 191.472 36.9087C192.25 36.5202 193.418 35.7432 194.196 34.9662C194.975 34.1891 194.975 33.0236 194.975 32.2466C194.196 29.1385 191.083 30.304 189.137 31.4696C186.413 32.6351 183.3 33.8006 180.186 33.8006C173.959 34.1891 168.122 32.6351 161.895 32.6351C161.506 32.6351 161.117 32.6351 161.117 32.6351C158.393 28.3614 155.279 23.3108 156.836 19.4256C157.225 19.0371 157.614 18.6486 158.003 18.2601C159.949 16.706 158.003 13.5979 155.668 13.9864C153.723 14.375 151.777 15.929 150.22 17.0946C148.274 18.2601 145.939 19.4256 143.604 19.8141C141.658 20.2027 139.712 20.5912 137.377 20.5912C136.599 19.4256 135.821 18.6486 135.042 17.4831C131.929 13.9864 127.648 12.0439 123.756 9.32428C121.81 8.15874 119.865 6.9932 118.308 5.43915C116.751 3.88509 115.584 2.33104 114.416 0.388474C113.638 -0.777067 111.692 -3.97243e-05 112.081 1.1655C112.081 1.55401 112.081 1.55401 112.081 1.94253C111.692 3.10807 109.357 5.43915 108.968 6.21618C107.8 8.15874 105.854 9.7128 104.298 11.2669C100.795 14.375 96.5144 17.0946 93.0118 20.5912C92.2335 21.3682 91.066 22.5337 90.6768 23.6993C88.731 23.6993 86.7851 23.3108 84.8392 22.9223C82.5042 22.1452 80.5584 20.2027 78.6125 19.0371C77.8342 18.6486 77.0558 17.8716 76.2775 17.8716C76.2775 17.8716 76.2775 17.8716 76.2775 17.4831C75.8883 15.5405 73.5533 15.929 72.775 17.4831C70.8291 22.1452 72.775 26.8074 70.0508 31.081C70.0508 31.081 70.0508 31.081 70.0508 31.4696C66.159 31.081 62.2673 31.081 58.7648 31.4696C54.8731 31.8581 50.9814 32.6351 47.4788 33.0236C43.5871 33.4121 38.9171 33.8006 35.0254 33.0236C34.247 33.0236 33.4687 33.4121 33.8579 34.1891C35.8037 40.0168 34.6362 45.8446 34.247 51.6723C33.8579 56.3344 33.4687 60.9966 34.247 65.6587C31.912 67.2128 29.9662 68.7669 27.6311 70.3209C26.4636 71.0979 25.2961 71.4864 24.1286 71.4864C23.3502 71.4864 23.3502 71.4864 22.5719 71.4864C22.5719 71.4864 21.0152 70.7094 20.626 70.7094C20.2369 70.3209 20.2369 70.7094 19.8477 70.7094C18.6802 70.3209 17.9019 71.875 19.0694 72.652C19.4585 73.0405 19.8477 73.429 20.2369 73.8175C20.626 74.206 20.626 74.5946 21.0152 74.5946C22.1827 76.1486 22.9611 78.0912 23.3502 80.0337C24.5178 83.9189 24.5178 87.027 25.2961 90.9121C24.1286 91.6891 23.3502 92.4662 22.1827 93.6317C18.6802 97.1283 16.3452 101.402 12.8426 104.899C11.2859 106.453 9.72926 108.395 7.78341 109.172C5.44838 110.338 2.72419 110.726 0.778331 112.28L0.38916 112.669C0.38916 113.446 0.38916 114.223 1.1675 114.611C1.55667 115 1.94584 115 2.72419 115C3.8917 116.165 5.44838 116.943 6.6159 117.72C8.95092 119.274 10.8968 120.828 12.8426 122.382C16.7343 126.267 20.2369 130.929 24.1286 134.814C24.5178 135.203 24.9069 135.591 25.6853 135.98C25.6853 138.311 25.2961 140.642 24.9069 142.584C24.5178 144.527 24.1286 146.081 22.9611 147.635C21.7936 149.966 20.626 151.52 19.0694 151.52C17.1235 151.52 17.1235 154.628 19.0694 154.628C19.0694 154.628 19.0694 154.628 19.4585 154.628C22.1827 155.017 24.5178 156.182 26.8528 157.348C29.9662 159.29 33.0795 160.845 36.5821 162.399C36.1929 167.061 36.9712 172.111 37.3604 176.774C37.7496 182.213 37.3604 187.652 35.8037 193.091C35.8037 193.868 36.1929 194.257 36.5821 194.645C36.5821 195.034 36.5821 195.034 36.5821 195.422C36.5821 195.811 37.3604 196.199 37.7496 195.811C37.7496 195.811 39.6954 195.034 40.0846 195.034C41.2521 194.645 42.4196 194.645 43.198 194.257C46.3113 194.257 49.0355 194.645 52.1489 195.034C56.8189 195.811 61.489 196.976 66.159 195.811C66.9374 195.811 67.7157 195.422 68.1049 195.422C69.6616 197.753 71.2183 200.084 72.3858 202.415C73.1641 203.97 73.5533 205.912 73.5533 207.466C73.5533 209.409 72.3858 210.963 72.3858 212.905C72.3858 213.682 73.5533 214.071 74.3316 214.071C75.4992 214.071 76.2775 213.294 76.6667 212.128C77.0558 212.128 77.445 211.74 77.445 211.351C79.78 207.855 83.6717 207.466 87.5634 207.078C89.5093 206.689 91.4552 206.689 93.7902 206.301C96.9036 209.409 101.184 212.128 104.298 215.625C107.8 219.51 109.357 223.784 110.914 228.834C111.692 231.165 115.584 230.777 115.584 228.057C115.195 222.618 120.254 218.733 124.535 216.013C128.816 212.905 133.875 210.574 137.377 205.912C138.156 204.747 138.934 203.97 139.323 202.804C139.712 202.804 140.491 202.804 140.88 202.804C145.939 203.193 150.609 204.747 154.89 208.243C157.225 210.186 160.338 207.466 158.393 204.747C155.668 201.25 159.171 197.365 161.506 194.645C161.895 194.257 162.284 193.868 162.673 193.091C165.787 193.091 168.9 193.091 172.014 192.703C175.516 192.314 178.629 191.537 182.132 191.926C184.856 192.314 187.191 193.091 189.526 193.868C190.305 195.034 191.083 195.811 192.25 195.811C193.807 196.199 195.364 195.422 195.753 193.868C196.531 191.926 194.975 189.595 194.975 187.652C194.975 185.321 195.364 182.601 195.753 180.27C196.531 174.831 198.088 169.392 197.699 163.953C197.699 161.622 196.92 159.29 196.531 157.348C200.034 155.405 203.536 153.851 208.206 153.851C210.541 153.851 212.098 150.743 210.152 148.801C206.65 145.693 205.482 142.584 205.482 138.311C205.482 136.757 205.482 135.591 205.482 134.037C205.871 133.649 206.65 132.872 207.039 132.483C212.098 126.267 216.768 114.611 226.108 115.388C228.054 115.388 229.222 113.834 228.833 112.28C229.222 111.892 229.222 111.892 229.222 111.503C229.222 111.503 229.222 111.503 229.222 111.115C230 109.949 230.389 108.784 229.611 107.618ZM161.506 185.709C161.117 186.098 161.117 186.486 160.728 186.875C156.836 186.486 153.333 185.321 150.22 183.378C147.885 182.213 146.328 180.659 145.161 179.105C145.161 178.328 144.772 177.939 144.772 177.162C145.55 176.774 146.717 176.385 147.496 175.997C152.944 173.277 157.614 169.392 162.284 165.895C162.284 165.895 162.673 165.895 162.673 165.507C162.673 165.895 163.063 166.284 163.063 166.672C164.23 168.615 165.008 170.946 165.398 172.888C166.565 177.551 164.619 182.213 161.506 185.709ZM138.934 182.213C138.934 185.321 138.545 188.429 137.767 191.149C137.377 192.703 136.599 194.645 136.21 196.199C135.821 196.199 135.042 196.199 134.653 195.811C130.372 195.034 126.481 193.48 123.367 190.76C122.2 189.595 121.421 188.818 120.643 187.263C121.421 185.709 121.81 184.155 121.81 182.213C127.648 181.824 133.486 180.659 138.934 179.105C138.545 180.27 138.934 181.436 138.934 182.213ZM96.9035 199.307C95.3469 197.365 93.7902 195.034 92.6227 192.703C90.6768 188.04 90.2876 182.99 91.8443 178.328C99.2386 181.047 106.633 182.601 114.416 182.99C113.638 186.875 111.692 190.372 108.579 193.091C105.465 196.199 101.184 198.142 96.9035 199.307ZM72.3858 187.263C70.0508 183.378 66.9374 179.493 65.7699 175.22C64.2132 170.946 64.9915 168.226 68.4941 164.73C68.8832 164.341 68.8832 164.341 68.8832 163.953C73.1641 168.226 77.445 172.111 83.6717 174.831C84.4501 175.22 85.2284 175.608 86.0068 175.608C86.0068 175.608 86.0068 175.608 85.6176 175.608C85.2284 175.997 84.8392 176.774 84.8392 177.162C84.8392 177.551 84.8392 178.328 84.8392 178.328C84.4501 179.493 83.2826 180.659 82.1151 181.824C79.0017 184.544 75.4992 186.098 72.3858 187.263ZM170.457 148.801C166.954 149.966 164.23 152.686 161.506 155.405C158.003 158.902 154.112 161.622 149.831 164.341C140.88 170.557 130.761 174.054 119.475 174.443C108.968 174.831 99.2386 172.5 89.5093 169.003C78.2233 165.118 70.0508 156.959 61.0998 149.578C59.9323 148.801 57.9865 149.966 58.7648 151.132C60.3215 153.463 62.2673 155.794 63.824 158.125C62.2673 158.125 61.0998 158.513 60.3215 160.456C60.3215 160.845 59.9323 161.233 59.5431 162.01C59.154 162.399 59.5431 162.01 59.5431 162.399L59.154 162.787L58.7648 163.176C58.7648 163.176 58.7648 163.176 58.3756 163.176H57.9865C57.9865 163.176 57.5973 163.176 57.2081 163.176C56.8189 163.176 56.4298 163.176 56.4298 163.176C56.0406 163.176 56.0406 163.176 55.6514 163.176C54.8731 163.176 54.0947 162.787 53.3164 162.787C51.7597 162.399 49.8139 161.622 48.2572 161.233C46.7005 160.456 44.7546 160.068 43.198 159.29C43.5871 157.348 43.9763 155.017 44.7546 153.074C45.9222 148.801 48.2572 145.693 51.3706 142.973C52.5381 143.75 53.3164 144.527 54.8731 144.915C55.6514 145.304 56.8189 144.527 56.4298 143.75C54.8731 138.699 52.1489 134.037 50.9814 128.986C49.8139 123.547 49.8139 117.72 50.203 112.28C50.9814 101.013 53.7056 89.7466 59.9323 80.4223C66.9374 69.9324 77.445 62.5506 88.731 57.1114C94.5685 54.3918 101.184 51.6723 107.8 50.8952C115.195 49.7297 122.589 51.2837 129.983 52.4493C130.761 53.2263 131.929 53.2263 133.096 52.8378C133.486 52.8378 133.875 52.4493 133.875 52.4493C134.653 52.0608 135.042 51.6723 135.431 50.8952C137.377 52.0608 140.102 51.6723 141.269 48.9527C143.993 46.2331 146.328 43.5135 149.831 41.5709C152.555 40.0168 155.668 39.2398 158.782 38.8513C160.338 41.5709 161.895 44.2905 162.673 47.0101C163.063 48.9527 163.063 50.8952 162.284 52.8378C161.506 54.7804 159.56 56.3344 158.393 58.277C156.058 56.7229 153.723 55.5574 151.387 55.5574C149.831 55.5574 149.442 57.1114 149.831 58.277C150.998 60.9966 153.723 62.9392 156.058 64.8817C158.782 67.6013 161.506 70.7094 163.841 73.8175C168.511 79.6452 172.403 86.25 175.127 93.2432C177.073 98.6824 178.629 103.733 179.019 109.172C178.629 109.949 178.629 110.726 178.629 111.503C177.851 113.057 177.851 114.611 179.019 115.777C179.019 121.993 177.851 128.209 175.127 134.037C174.349 136.368 171.624 139.088 171.624 141.807C171.624 144.138 173.57 145.693 175.905 144.915C177.073 144.527 178.24 143.75 179.019 142.973C179.797 144.138 180.575 144.915 181.354 146.081C183.689 148.412 185.635 150.355 186.802 153.074C187.191 153.851 187.191 154.24 187.58 155.017C187.58 155.017 187.191 155.017 187.191 155.405C183.689 157.348 179.797 159.29 175.516 159.679C173.57 159.679 171.624 159.679 169.679 159.29C169.289 159.29 168.511 159.29 168.122 158.902C169.289 158.125 170.068 157.348 171.235 156.959C177.462 155.017 175.516 146.858 170.457 148.801ZM56.0406 163.176C56.0406 163.564 56.4298 163.564 56.0406 163.176V163.176ZM64.9915 55.5574C64.2132 51.2837 65.7699 46.6216 68.4941 42.7364C69.6616 41.1824 70.8291 39.6283 71.9966 38.4628C78.2233 40.0168 85.2284 42.7364 86.3959 49.3412C86.3959 49.7297 86.7851 49.7297 86.7851 50.1182C80.1692 52.8378 73.9425 56.7229 68.4941 60.9966C67.7157 59.831 66.5482 58.277 65.3807 57.5C65.3807 56.7229 64.9915 55.9459 64.9915 55.5574ZM99.6277 28.75C103.519 29.1385 107.022 30.6925 109.746 33.8006C110.914 34.9662 112.081 36.9087 112.86 38.4628C113.638 40.0168 113.638 41.5709 114.416 43.125C112.47 43.125 110.914 43.125 108.968 43.5135C103.519 44.2905 98.4602 45.8446 93.401 47.3986C93.401 46.2331 93.0118 45.0675 92.6227 43.902C92.6227 43.125 92.6227 42.7364 92.6227 41.9594C92.6227 39.2398 92.6227 36.5202 93.401 33.8006C93.7902 31.8581 94.5685 30.304 95.3469 28.75C96.5144 28.75 98.0711 28.75 99.6277 28.75ZM121.421 40.7939C122.2 39.6283 122.589 38.0743 122.978 36.5202C123.367 34.9662 123.756 33.8006 124.535 32.6351C125.313 31.4696 124.924 31.8581 125.702 31.4696C126.481 31.081 127.259 30.304 128.037 29.9155C129.594 29.1385 131.54 28.75 133.486 28.3614C135.042 33.8006 135.042 40.0168 133.875 45.456C133.486 45.456 133.486 45.456 133.096 45.0675C129.205 44.2905 125.313 43.5135 121.421 43.125C121.81 42.3479 121.81 41.5709 121.421 40.7939ZM58.3756 60.2196C58.7648 62.5506 59.9323 65.6587 61.489 67.2128C58.7648 69.9324 56.4298 72.652 54.4839 75.7601C53.3164 77.3141 52.1489 79.2567 51.3706 81.1993C49.0355 79.2567 46.3113 78.0912 44.7546 76.1486C42.4196 73.429 40.8629 70.7094 39.6954 67.2128C41.2521 66.0473 42.8088 64.8817 44.3655 64.1047C47.4788 62.1621 51.3706 60.2195 54.4839 59.831C55.2623 59.831 56.4298 59.831 56.8189 59.831C57.5973 60.2195 57.9865 60.2196 58.3756 60.2196ZM47.4788 90.1351C45.533 95.9628 44.3655 102.179 43.5871 108.395C42.8088 108.395 42.4196 108.784 41.6413 108.784C41.2521 108.784 40.8629 108.784 40.4738 108.784H40.0846H39.6954C39.3063 108.784 38.9171 108.784 38.5279 108.395H38.1387C37.7496 108.395 37.3604 108.007 37.3604 108.007L36.9712 107.618C36.5821 107.23 36.5821 107.23 36.1929 106.841C36.1929 106.841 36.1929 106.841 36.1929 106.453C35.8037 105.676 35.4145 104.899 35.0254 104.122L34.6362 103.345C34.6362 102.956 34.247 102.568 34.247 102.179C33.8579 101.402 33.8579 100.625 33.4687 99.8479C33.0795 97.9054 32.6903 95.9628 32.3012 94.0202C33.4687 93.6317 34.247 92.8547 35.4145 92.4662C37.7496 91.6891 40.4738 90.9121 43.198 90.5236C43.5871 89.7466 45.9222 89.7466 47.4788 90.1351ZM40.0846 117.72C41.2521 117.331 42.4196 116.554 43.5871 116.165C43.5871 122.77 44.3655 130.929 47.4788 137.145C47.0897 137.534 46.7005 137.534 46.3113 137.922C42.8088 137.534 39.3063 137.534 35.8037 136.757C34.247 136.368 32.6903 135.591 31.5228 134.814C31.912 130.54 32.3012 125.878 34.6362 122.382C36.1929 120.051 37.7496 118.885 40.0846 117.72ZM180.575 73.8175C179.797 74.5946 179.408 75.7601 178.629 76.5371C178.24 76.9256 177.851 77.3141 177.462 78.0912C175.127 74.5946 172.792 71.4864 170.068 68.3783C168.9 67.2128 167.733 65.6587 166.176 64.4932C166.176 64.4932 166.176 64.4932 166.565 64.4932C168.511 64.1047 170.068 64.1047 172.014 63.7162C175.516 63.7162 179.797 63.3277 183.299 64.4932C183.689 64.8817 184.467 64.8817 184.856 65.2702C184.467 66.0473 184.467 66.8243 184.078 67.6013C182.91 69.9324 181.743 71.875 180.575 73.8175ZM183.299 137.145C184.467 134.426 184.856 131.318 185.245 129.375C186.413 125.101 187.191 120.828 187.58 116.165C191.861 118.497 194.975 122.382 196.92 126.655C197.699 128.209 198.088 130.152 198.477 132.095C197.31 133.26 196.142 134.037 194.585 134.814C191.861 136.368 188.359 136.757 185.245 137.145C184.856 137.145 184.078 137.145 183.299 137.145ZM187.97 107.618C187.58 101.402 185.635 95.1858 183.299 88.9696C183.299 88.581 182.91 88.1925 182.91 87.804C184.078 87.804 185.245 88.1925 186.413 88.1925C189.137 88.581 191.472 89.3581 194.196 90.9121C195.753 91.6891 196.92 92.4662 198.088 93.2432C198.088 93.6317 198.088 94.0202 198.088 94.4087C197.31 98.2939 195.364 102.568 192.25 105.287C190.694 106.453 189.137 107.23 187.97 107.618ZM195.364 73.429C196.92 74.5946 198.477 75.3716 200.423 76.1486C200.034 76.9256 199.645 77.3142 199.256 78.4797C198.088 81.1993 198.088 83.9189 198.088 87.027C196.92 86.25 195.753 85.8614 194.585 85.4729C190.694 83.9189 186.802 83.1419 182.91 83.5304C183.689 82.3648 184.467 81.1993 185.245 80.4223C186.802 78.4797 187.97 76.5371 188.748 74.206C189.526 72.652 189.915 71.4864 190.694 69.9324C192.25 71.0979 193.807 72.2635 195.364 73.429ZM187.191 38.8513C186.024 43.5135 187.191 49.3412 187.191 54.0033C187.191 55.9459 186.802 57.8885 186.413 59.831C184.467 59.054 182.132 58.277 179.797 58.277C175.516 57.8885 170.846 58.277 166.954 59.4425C168.9 56.7229 169.679 53.2263 170.068 50.5067C170.068 46.2331 168.122 42.3479 165.787 38.8513C172.792 39.2398 180.186 40.7939 187.191 38.8513ZM147.496 25.6419C149.442 24.8648 150.998 23.6993 152.555 22.5337C152.944 26.0304 154.501 30.304 156.058 33.0236C152.944 33.8006 150.22 34.5777 147.496 36.5202C145.939 37.6858 143.993 38.8513 142.437 40.4054C142.437 35.7432 142.047 31.4696 140.88 27.1959C142.826 26.8074 145.161 26.4189 147.496 25.6419ZM111.303 12.8209C112.47 11.2669 114.027 9.7128 114.805 8.15874C115.584 9.32428 116.362 10.1013 117.53 10.8783C120.643 13.9864 124.535 16.3175 127.648 19.4256C128.426 20.2027 129.205 20.9797 129.983 21.7567C129.594 21.7567 129.594 21.7567 129.205 21.7567C124.924 22.9223 120.643 24.8648 118.308 28.75C117.919 29.9155 117.53 30.6925 116.751 31.8581C116.751 31.081 115.973 30.304 115.195 29.9155C112.081 26.4189 107.411 24.4763 102.741 23.6993C101.574 23.6993 100.017 23.3108 98.8494 23.3108C99.2386 22.9223 99.6277 22.5337 100.017 22.1452C103.909 19.4256 108.19 16.3175 111.303 12.8209ZM77.445 22.5337C79.0017 24.0878 80.5584 26.0304 82.8934 26.8074C84.8392 27.5844 86.7851 27.9729 88.731 28.3614C87.9526 30.304 87.5634 32.6351 87.1743 34.9662C87.1743 35.7432 87.1743 36.5202 86.7851 37.2973C83.2826 34.9662 79.3909 33.4121 75.4991 32.6351C75.8883 31.8581 76.2775 31.4696 76.2775 30.6925C77.0558 27.9729 77.0558 24.8648 76.6667 22.1452C77.0558 22.1452 77.445 22.1452 77.445 22.5337ZM38.5279 48.1756C38.1387 43.902 37.7496 39.6283 36.1929 35.7432C38.5279 36.5202 40.8629 37.6858 43.5871 37.6858C47.0897 38.0743 50.5922 38.0743 54.0947 37.6858C57.5973 37.2973 61.0998 36.9087 64.6024 36.9087C62.6565 38.8513 61.0998 41.1824 59.9323 43.5135C58.3756 46.6216 57.5973 50.1182 57.5973 54.0033C54.0947 53.6148 50.5922 54.7804 47.0897 56.3344C43.9763 57.8885 41.2521 59.831 38.9171 61.7736C38.5279 57.5 38.9171 52.8378 38.5279 48.1756ZM27.242 77.3141C26.8528 76.5371 26.4636 76.1486 26.0744 75.3716C28.7986 74.5946 31.5228 73.0405 34.247 71.4864C34.6362 71.4864 34.6362 71.0979 35.0254 71.0979C36.1929 74.5946 38.1387 77.7027 40.4738 80.0337C41.6413 81.1993 42.8088 81.9763 43.9763 83.1418C39.3063 83.5304 34.6362 85.0844 30.7445 87.027C29.9662 83.9189 28.7986 80.4223 27.242 77.3141ZM14.7885 118.497C12.8426 116.943 10.8968 115.777 8.17258 115C10.5076 114.223 12.4535 112.669 14.0101 111.503C17.5127 108.395 20.2369 104.51 23.3502 101.013C24.1286 99.8479 24.9069 99.0709 26.0744 98.2939C26.8528 103.733 28.4095 109.172 32.6903 112.669C33.0795 113.057 33.8579 113.446 34.247 113.834C33.0795 114.611 31.912 115.388 31.1337 116.165C27.6311 120.051 26.8528 125.101 26.0744 130.152C22.1827 125.878 18.6802 121.605 14.7885 118.497ZM25.6853 152.297C26.8528 151.132 27.6311 149.966 28.4095 148.801C29.577 146.47 30.3553 143.75 31.1337 140.642C34.247 142.196 37.7496 143.361 41.2521 143.75C39.3063 147.247 37.7496 151.52 37.3604 155.794C34.247 154.24 31.1337 153.074 27.6311 152.297C26.8528 152.686 26.0744 152.297 25.6853 152.297ZM60.3215 189.983C55.6514 189.595 51.3706 188.818 46.7005 188.818C45.1438 188.818 43.198 189.206 41.6413 189.595C45.1438 182.99 43.198 172.888 43.198 165.895C47.868 168.226 52.9272 170.169 57.5973 170.169C57.2081 174.054 58.3756 177.939 60.3215 181.824C61.8782 184.544 63.4349 186.875 64.9915 189.595C63.4349 189.983 61.8782 190.372 60.3215 189.983ZM82.5042 202.804C81.3367 203.193 80.5584 203.581 79.3909 204.358C79.3909 203.581 79.3909 202.415 79.0017 201.638C78.2233 198.53 77.0558 195.811 75.4991 193.091C77.8342 191.926 80.1692 191.149 82.5042 189.595C83.2826 189.206 84.4501 188.429 85.2284 187.652C85.6176 192.314 87.1743 196.976 89.8985 200.861C87.1743 201.25 84.8393 201.638 82.5042 202.804ZM130.761 204.747C126.091 209.02 117.919 213.294 114.027 219.122C111.692 213.294 107.022 208.632 102.352 204.747C108.19 202.415 113.638 198.53 117.53 193.091C119.865 196.199 123.367 198.53 127.259 200.084C129.205 200.861 131.54 201.638 133.486 202.027C132.318 202.804 131.54 203.581 130.761 204.747ZM154.112 195.811C153.333 197.365 152.944 198.919 152.944 200.473C149.831 198.53 145.939 198.142 142.047 197.365C142.826 195.034 143.604 192.314 144.382 189.595C144.772 188.429 144.772 187.263 145.161 185.709C148.274 188.818 152.555 191.149 156.058 192.314C156.058 192.314 156.058 192.314 156.447 192.314C155.279 193.48 154.501 194.645 154.112 195.811ZM191.083 168.615C190.305 173.665 189.137 178.716 188.748 183.767C188.748 184.544 188.748 185.709 188.748 186.486C185.245 185.321 181.743 184.932 178.629 185.321C175.516 185.709 172.403 186.098 168.9 186.486C169.289 186.098 169.289 185.709 169.679 185.321C172.403 180.659 173.181 175.608 172.014 170.169C171.624 167.838 170.457 165.507 169.289 163.564C169.289 163.176 168.9 162.787 168.9 162.399C169.289 162.399 169.289 162.399 169.679 162.787C171.624 163.564 173.959 163.953 175.905 163.953C180.186 164.341 184.467 163.176 188.359 161.622C189.137 161.233 190.305 160.845 191.083 160.456C191.083 163.176 191.083 165.895 191.083 168.615ZM191.472 146.858C189.526 144.527 187.58 142.973 184.856 141.419C187.97 141.807 190.694 141.419 193.807 140.642C195.753 140.253 197.699 139.088 199.645 137.922C200.034 139.865 200.423 141.419 200.812 142.973C201.201 144.915 201.591 146.858 202.758 148.412C199.645 149.189 197.31 150.355 194.585 151.52C193.418 150.355 192.64 148.412 191.472 146.858ZM205.093 125.101C204.704 125.49 204.704 125.878 204.315 126.267C204.315 125.878 204.315 125.878 203.926 125.49C203.536 123.936 202.758 122.77 201.98 121.605C201.98 121.605 201.98 121.216 201.591 121.216C199.645 117.72 196.92 114.223 193.418 111.892C196.92 109.172 200.034 105.676 201.591 101.013C201.98 99.8479 202.369 98.6824 202.369 97.5169C203.147 97.9054 203.536 98.6824 204.315 99.0709C208.206 102.568 212.876 107.618 217.936 110.338C212.487 113.446 208.596 119.662 205.093 125.101Z" fill="white"/>
</g>
<defs>
<clipPath id="clip0_9_9">
<rect width="230" height="230" fill="white"/>
</clipPath>
</defs>
</svg>
